<svg width="100" height="100" viewBox="0 0 100 100" fill="none" xmlns="http://www.w3.org/2000/svg">
<g clip-path="url(#clip0_54_24)">
<path d="M77.5454 91.9545H85.0909C88.9091 91.9545 92.0455 89.0455 92.5 85.3182L100 10.4091H77.2727V-8H68.3182V10.4091H45.7273L47.0909 21.0455C54.8636 23.1818 62.1364 27.0455 66.5 31.3182C73.0455 37.7727 77.5454 44.4545 77.5454 55.3636V91.9545ZM0 87.4091V82.9091H68.3182V87.4091C68.3182 89.9091 66.2727 91.9545 63.7273 91.9545H4.59091C2.04545 91.9545 0 89.9091 0 87.4091ZM68.3182 55.5909C68.3182 19.2273 0 19.2273 0 55.5909H68.3182ZM0.090909 64.7273H68.2727V73.8182H0.090909V64.7273Z" fill="white"/>
</g>
<defs>
<clipPath id="clip0_54_24">
<rect width="100" height="100" fill="white"/>
</clipPath>
</defs>
</svg>
