<svg width="300" height="200" viewBox="0 0 300 200" fill="none" xmlns="http://www.w3.org/2000/svg">
<path d="M290.456 184.876C290.456 184.936 227.764 184.98 150.456 184.98C73.148 184.98 10.432 184.936 10.432 184.876C10.432 184.816 73.112 184.772 150.456 184.772C227.8 184.772 290.456 184.82 290.456 184.876Z" fill="#263238"/>
<path d="M66.344 183.116C71.736 179.376 72.98 172.408 72.788 166.14C72.756 165.096 72.876 163.992 72.388 163.072C71.9 162.152 70.736 161.524 69.796 161.96C69.02 162.324 68.676 163.224 68.24 163.96C67.6567 164.955 66.8039 165.765 65.78 166.296C65.112 166.636 64.288 166.844 63.628 166.48C62.728 165.98 62.628 164.732 62.636 163.68C62.6573 161.741 62.676 159.803 62.692 157.864C62.7592 156.834 62.6606 155.799 62.4 154.8C62.08 153.812 61.368 152.892 60.376 152.608C59.384 152.324 58.164 152.896 57.952 153.912C57.9099 154.343 57.8979 154.776 57.916 155.208C57.9218 155.424 57.8637 155.636 57.7492 155.819C57.6346 156.002 57.4686 156.147 57.272 156.236C56.872 156.356 56.44 156.06 56.132 155.756C55.06 154.7 54.336 153.356 53.66 151.996C52.984 150.636 52.328 149.268 51.356 148.12C50.384 146.972 49.04 146.056 47.552 145.968C46.064 145.88 44.472 146.792 44.088 148.252C43.704 149.712 44.556 151.212 45.484 152.4C46.8528 154.166 48.4695 155.725 50.284 157.028C50.6363 157.227 50.9165 157.532 51.084 157.9C51.304 158.596 50.648 159.28 49.96 159.5C49.184 159.756 48.36 159.672 47.532 159.764C46.704 159.856 45.84 160.212 45.532 160.964C45.104 162.028 45.988 163.144 46.86 163.876C48.6082 165.346 50.5975 166.504 52.74 167.296C53.5269 167.518 54.267 167.881 54.924 168.368C55.54 168.908 55.908 169.844 55.532 170.576C55.156 171.308 54.2 171.54 53.396 171.376C52.592 171.212 51.88 170.788 51.116 170.496C49.688 169.952 47.84 170.044 46.92 171.276C46.6395 171.701 46.461 172.185 46.3985 172.69C46.3361 173.195 46.3913 173.708 46.56 174.188C46.9053 175.143 47.4385 176.019 48.128 176.764C50.385 179.494 53.3266 181.576 56.652 182.796C59.964 183.96 63.052 184.28 66.336 183.088" fill="#28DF99"/>
<path d="M66 184.88C65.784 182.396 65.672 182.344 64.752 179.18C63.725 175.762 62.5016 172.405 61.088 169.128C60.7147 168.256 60.3493 167.395 59.992 166.544C59.628 165.696 59.272 164.856 58.868 164.056C58.0901 162.524 57.2274 161.036 56.284 159.6C55.4 158.216 54.508 156.94 53.664 155.748C52.82 154.556 52.012 153.468 51.232 152.504C50.0131 150.977 48.6756 149.549 47.232 148.232C46.72 147.764 46.312 147.432 46.032 147.184L45.712 146.924C45.64 146.864 45.6 146.836 45.596 146.84C45.6289 146.875 45.6636 146.908 45.7 146.94L46.008 147.216C46.28 147.456 46.68 147.812 47.184 148.288C48.608 149.622 49.9303 151.061 51.14 152.592C51.912 153.556 52.712 154.652 53.54 155.844C54.368 157.036 55.26 158.316 56.144 159.696C57.0739 161.134 57.9245 162.621 58.692 164.152C59.092 164.952 59.448 165.784 59.808 166.632C60.168 167.48 60.532 168.344 60.904 169.216C62.314 172.488 63.5399 175.835 64.576 179.244C65.5 182.396 65.624 182.444 65.86 184.904" fill="#263238"/>
<path d="M58.8 164.048C58.8492 163.904 58.8827 163.755 58.9 163.604C58.956 163.316 59.024 162.9 59.1 162.38C59.248 161.344 59.408 159.908 59.58 158.324C59.752 156.74 59.928 155.308 60.092 154.276C60.176 153.76 60.244 153.344 60.3 153.056C60.3369 152.908 60.3557 152.756 60.356 152.604C60.299 152.745 60.2548 152.891 60.224 153.04C60.152 153.324 60.06 153.74 59.96 154.24C59.76 155.268 59.56 156.704 59.388 158.288C59.216 159.872 59.076 161.268 58.964 162.352C58.912 162.84 58.864 163.252 58.828 163.58C58.7981 163.734 58.7887 163.891 58.8 164.048Z" fill="#263238"/>
<path d="M45.4319 161.5C45.6079 161.54 45.7875 161.563 45.9679 161.568C46.3079 161.6 46.8079 161.64 47.4199 161.716C48.6439 161.852 50.3279 162.116 52.176 162.456C54.024 162.796 55.6799 163.208 56.8719 163.528C57.4679 163.684 57.948 163.824 58.28 163.928C58.4508 163.985 58.626 164.028 58.804 164.056C58.6435 163.974 58.4762 163.905 58.304 163.852C57.976 163.736 57.504 163.576 56.908 163.404C55.708 163.048 54.0639 162.632 52.2119 162.272C50.6249 161.961 49.0228 161.732 47.4119 161.588C46.7959 161.532 46.2959 161.508 45.9519 161.5C45.7789 161.485 45.605 161.485 45.4319 161.5Z" fill="#263238"/>
<path d="M64.576 178.936C64.6151 178.886 64.6473 178.831 64.672 178.772C64.732 178.64 64.808 178.48 64.9 178.288C65.1 177.868 65.368 177.252 65.7 176.488C66.348 174.956 67.184 172.816 68.068 170.436C68.952 168.056 69.768 165.912 70.384 164.372L71.124 162.548C71.2 162.348 71.268 162.184 71.32 162.052C71.372 161.92 71.384 161.876 71.376 161.872C71.3387 161.923 71.3078 161.978 71.284 162.036L71.056 162.516C70.856 162.94 70.584 163.556 70.256 164.32C69.604 165.848 68.772 167.992 67.888 170.368C67.004 172.744 66.188 174.892 65.568 176.436C65.268 177.184 65.016 177.8 64.832 178.256C64.752 178.456 64.688 178.62 64.636 178.756C64.6098 178.814 64.5897 178.874 64.576 178.936Z" fill="#263238"/>
<path d="M46.8199 173.144C46.8758 173.174 46.9348 173.198 46.9959 173.216L47.5119 173.392L49.4159 174.016C51.0159 174.54 53.2279 175.296 55.6679 176.128C58.1079 176.96 60.3279 177.7 61.9439 178.192C62.7439 178.44 63.408 178.632 63.864 178.756L64.3919 178.9C64.4521 178.917 64.5137 178.929 64.576 178.936C64.576 178.936 64.5199 178.904 64.4 178.86L63.8879 178.688L61.9999 178.064C60.3999 177.536 58.1879 176.784 55.7439 175.948C53.2999 175.112 51.0879 174.376 49.4719 173.884C48.6719 173.636 48.0079 173.444 47.5519 173.32L47.0239 173.18C46.9589 173.155 46.8896 173.143 46.8199 173.144Z" fill="#263238"/>
<path d="M131.296 184.876H75.628C68.904 184.848 63.228 179.112 63.248 172.384L63.84 32.18C63.8463 30.5798 64.1678 28.9965 64.7862 27.5207C65.4047 26.0448 66.3078 24.7053 67.4442 23.5786C68.5805 22.4519 69.9277 21.5602 71.4088 20.9544C72.8899 20.3486 74.4758 20.0406 76.076 20.048L132 20.308C133.599 20.3148 135.182 20.6366 136.657 21.2551C138.131 21.8735 139.47 22.7765 140.596 23.9124C141.722 25.0483 142.613 26.3949 143.218 27.8752C143.824 29.3556 144.131 30.9407 144.124 32.54L143.532 172.744C143.526 174.344 143.204 175.927 142.586 177.403C141.967 178.879 141.064 180.219 139.928 181.345C138.791 182.472 137.444 183.364 135.963 183.97C134.482 184.575 132.896 184.883 131.296 184.876Z" fill="#263238"/>
<path d="M131.924 25.632L121.08 25.6C120.726 25.6062 120.378 25.6821 120.053 25.8231C119.729 25.9642 119.436 26.1678 119.19 26.4223C118.945 26.6767 118.752 26.977 118.622 27.3061C118.493 27.6351 118.43 27.9864 118.436 28.34V30.308C118.448 31.0217 118.176 31.7109 117.68 32.2245C117.185 32.7382 116.506 33.0343 115.792 33.048L94.656 32.948C94.3024 32.9386 93.9542 32.8597 93.6311 32.7158C93.3081 32.5718 93.0166 32.3656 92.7733 32.1089C92.5299 31.8522 92.3396 31.5501 92.2131 31.2198C92.0866 30.8895 92.0264 30.5375 92.036 30.184V28.22C92.0532 27.5055 91.7869 26.8132 91.2952 26.2945C90.8034 25.7758 90.1264 25.4729 89.412 25.452H85.6L76.108 25.408C74.9875 25.4032 73.8771 25.6192 72.8402 26.0436C71.8032 26.468 70.86 27.0925 70.0644 27.8815C69.2688 28.6704 68.6363 29.6083 68.2032 30.6416C67.7701 31.675 67.5447 32.7835 67.54 33.904L66.96 170.724C66.9504 172.986 67.8396 175.159 69.4321 176.766C71.0245 178.373 73.1898 179.281 75.452 179.292L131.264 179.548C132.385 179.554 133.496 179.339 134.534 178.915C135.571 178.491 136.515 177.866 137.311 177.077C138.107 176.288 138.74 175.35 139.173 174.316C139.607 173.282 139.832 172.173 139.836 171.052L140.4 34.2C140.409 31.9409 139.521 29.7706 137.932 28.1646C136.344 26.5586 134.183 25.6478 131.924 25.632Z" fill="#F5F5F5"/>
<path d="M108.236 153.688C108.172 155.34 108.112 156.888 108.06 158.18H116.06L115.08 153.252L108.236 153.688Z" fill="#F5F5F5"/>
<path d="M75.652 155.748L75.72 158.18H107.26C107.312 156.812 107.372 155.3 107.432 153.74L75.652 155.748Z" fill="#F5F5F5"/>
<path d="M115.5 153.228L116.484 158.176H131.268L131.088 152.244L115.5 153.228Z" fill="#F5F5F5"/>
<path d="M109.036 84.032L111.832 67.828L104.512 67.284V84.032H109.036Z" fill="#F5F5F5"/>
<path d="M74.992 146.752L67.048 149.864L67.024 155.492L75.228 154.972L74.992 146.752Z" fill="#F5F5F5"/>
<path d="M74.956 145.488L74.524 130.396H74.516V125.072L67.148 125.852L67.052 148.576L74.952 145.48L74.956 145.488Z" fill="#F5F5F5"/>
<path d="M74.516 113.192L67.208 112.224L67.156 124.648L74.516 123.868V113.192Z" fill="#F5F5F5"/>
<path d="M128.992 125.296L128.684 129.624L120.052 130.552L120.72 133.976L130.516 133.236L130.372 128.328L131.152 125.08L128.992 125.296Z" fill="#F5F5F5"/>
<path d="M113.432 134.524L120.316 134.004L118.816 126.324L112.808 126.932L113.432 134.524Z" fill="#F5F5F5"/>
<path d="M113.5 135.324L114.024 141.728L114.956 150.512L115.34 152.436L131.064 151.444L130.54 134.036L113.5 135.324Z" fill="#F5F5F5"/>
<path d="M86.436 105.08L87.04 106.116L74.916 113.2V129.98L87.716 129.072L112.4 126.572L111.496 115.576L87.932 112.496L88.088 111.296L111.396 114.34L109.868 95.728L86.796 97.9439L86.72 97.1439L109.8 94.9279L109 85.2159H86.8L67.316 88.7599L67.22 111L74.592 112L86.436 105.08ZM76.156 128.364C76.156 128.364 76.248 114.532 76.156 114.016L86.052 108.752L87.336 127.66L76.156 128.364Z" fill="#F5F5F5"/>
<path d="M128.18 125.38L119.216 126.284L119.896 129.764L127.932 128.9L128.18 125.38Z" fill="#F5F5F5"/>
<path d="M108.348 150.724C108.32 151.452 108.292 152.172 108.268 152.884L114.94 152.46L114.596 150.74L108.348 150.724Z" fill="#F5F5F5"/>
<path d="M93.976 84.032L95.152 78.7H104.112V67.256L76.1 65.18V75.928L67.352 77.908L67.312 87.556L86.684 84.032H93.976Z" fill="#F5F5F5"/>
<path d="M112.668 52.18L112.428 51.2L123.124 46.968L116.168 33C116.036 33.0214 115.902 33.0321 115.768 33.032L103.948 32.976L104.268 52.524L112.668 52.18Z" fill="#F5F5F5"/>
<path d="M128.876 44.688V25.62L121.08 25.6C120.726 25.6062 120.378 25.6821 120.053 25.8231C119.729 25.9642 119.436 26.1678 119.19 26.4223C118.945 26.6767 118.752 26.977 118.622 27.3061C118.493 27.6351 118.43 27.9864 118.436 28.34V30.308C118.436 30.7474 118.332 31.1806 118.133 31.5725C117.935 31.9644 117.646 32.3041 117.292 32.564L124.252 46.54L128.876 44.688Z" fill="#F5F5F5"/>
<path d="M88.668 45.508L87.764 25.428H85.6L77.14 25.388L73.54 43.344L88.668 45.508ZM86.74 27.464L87.028 43.816L75.784 42.172L78.244 27.464H86.74Z" fill="#F5F5F5"/>
<path d="M89.076 45.568V45.736C89.076 47.304 89.124 50.136 89.148 53.14L103.88 52.54L103.56 32.976L94.644 32.932C94.2904 32.9226 93.9422 32.8437 93.6191 32.6998C93.2961 32.5558 93.0046 32.3496 92.7613 32.0929C92.518 31.8362 92.3276 31.5341 92.2011 31.2038C92.0746 30.8735 92.0144 30.5215 92.024 30.168V28.204C92.0412 27.4895 91.7749 26.7972 91.2832 26.2785C90.7915 25.7598 90.1144 25.4569 89.4 25.436H88.156L89.06 45.568H89.076Z" fill="#F5F5F5"/>
<path d="M72.348 43.164L75.916 25.384C73.6876 25.4237 71.5633 26.3342 69.9978 27.9206C68.4323 29.507 67.5501 31.6432 67.54 33.872L67.5 42.736L67.54 42.476L72.348 43.164Z" fill="#F5F5F5"/>
<path d="M74.9 65.0919L67.408 64.5359L67.356 76.676L74.9 74.968V65.0919Z" fill="#F5F5F5"/>
<path d="M72.268 43.556L67.5 42.872L67.416 62.532L68.444 62.608L72.268 43.556Z" fill="#F5F5F5"/>
<path d="M87.4 145.256L87.524 129.476L74.92 130.368L75.368 145.828L87.4 145.256Z" fill="#F5F5F5"/>
<path d="M89.72 141.6L107.568 150.152C107.784 144.552 107.968 139.352 107.968 139.004L108.368 138.984L108.56 138.608C108.812 138.732 108.812 138.732 108.68 142.544C108.604 144.668 108.5 147.496 108.392 150.324H114.564L113.656 141.748L112.456 126.948L89.132 129.3L89.72 141.6Z" fill="#F5F5F5"/>
<path d="M133.476 115.424L133.272 113.34L111.876 115.568L112.776 126.532L131.252 124.668L133.476 115.424Z" fill="#F5F5F5"/>
<path d="M104.112 79.9H96.116L95.204 84.032H104.112V79.9Z" fill="#F5F5F5"/>
<path d="M130.172 81.296L110.152 79.912L109.352 84.64L110.196 94.904L131.308 92.872L130.172 81.296ZM110.888 84.632L111.964 81.648L129.352 82.748L130.356 91.284L111.476 93.524L110.888 84.632Z" fill="#F5F5F5"/>
<path d="M132.248 102.748L131.368 93.672L110.244 95.7L111.04 105.36L132.248 102.748Z" fill="#F5F5F5"/>
<path d="M75.252 155.776L67.056 156.292L67.024 155.76L67.012 158.176H75.32L75.252 155.776Z" fill="#F5F5F5"/>
<path d="M140.268 40.18L140.388 40.488L140.4 34.2C140.408 31.9381 139.519 29.7654 137.927 28.1589C136.335 26.5525 134.17 25.6436 131.908 25.632H129.248V44.544L140.268 40.18Z" fill="#F5F5F5"/>
<path d="M107.552 150.604L89.332 141.872L88.688 129.364L87.928 129.44L87.796 145.64L75.376 146.228V146.588L75.616 154.94L107.452 152.94C107.492 152.16 107.524 151.38 107.552 150.604ZM76.156 147.26L93.54 146.06L104.848 151.304L76.156 152.856V147.26Z" fill="#F5F5F5"/>
<path d="M135.088 61.2L135.836 56.78C129.3 54.448 128.848 47.632 128.868 45.58L124.604 47.268L131.024 60.16L135.088 61.2Z" fill="#F5F5F5"/>
<path d="M111.776 114.372L120.66 113.448L118.912 105.6L111.136 106.56L111.776 114.372Z" fill="#F5F5F5"/>
<path d="M130.2 67.96H113.608L112.232 67.856L110.356 78.724L130.052 80.084L129.596 75.36L131.536 68.384L130.2 67.96Z" fill="#F5F5F5"/>
<path d="M129.796 65.96L130.004 60.76L123.484 47.668L113.372 51.668L116.848 65.94L129.796 65.96ZM123.088 49.276L129.064 60.644L128.2 64.188L117.976 63.788L115.42 53.036L123.088 49.276Z" fill="#F5F5F5"/>
<path d="M132.376 128.536L132.684 138.724L139.872 138.32L139.896 138.72L132.696 139.124L133.06 151.316L139.86 150.884L139.908 151.684L133.084 152.116L133.268 158.176H139.892L140.036 124.184L133.26 124.868L132.376 128.536Z" fill="#F5F5F5"/>
<path d="M88.6799 45.912L73.4559 43.728L69.6479 62.696L88.7479 64.112C88.8239 61.2 88.7559 52.232 88.6799 45.912Z" fill="#F5F5F5"/>
<path d="M113.72 65.96H116.024L112.764 52.576L104.292 52.924L104.496 65.276L113.72 65.96Z" fill="#F5F5F5"/>
<path d="M89.136 64.14L104.092 65.248L103.892 52.94L89.156 53.54C89.2 57.704 89.2 62.144 89.136 64.14Z" fill="#F5F5F5"/>
<path d="M132.364 103.944L119.308 105.552L121.064 113.404L133.156 112.148L132.364 103.944Z" fill="#F5F5F5"/>
<path d="M135.904 56.36L136.74 51.4L140.34 51.68L140.388 40.996L129.272 45.396C129.044 52.912 133.768 55.556 135.904 56.36Z" fill="#F5F5F5"/>
<path d="M131.624 75.536L132.076 80.224L140.22 80.788L140.26 71.136L133.444 68.984L131.624 75.536Z" fill="#F5F5F5"/>
<path d="M135.496 115.564L133.36 124.456L140.036 123.78L140.076 114.456C138.028 113.916 136.24 113.476 135.276 113.292L135.496 115.564Z" fill="#F5F5F5"/>
<path d="M130.992 66.112L140.268 69.044L140.292 63.768L131.18 61.412L130.992 66.112Z" fill="#F5F5F5"/>
<path d="M135.16 112.072C135.908 112.184 137.324 112.472 140.08 113.212L140.168 92.812L133.368 93.468L135.16 112.072Z" fill="#F5F5F5"/>
<path d="M133.284 92.684L140.172 92.02L140.212 81.992L132.192 81.436L133.284 92.684Z" fill="#F5F5F5"/>
<path d="M136.672 56.612C137.87 56.9835 139.086 57.2946 140.316 57.544V52.48L137.384 52.252L136.672 56.612Z" fill="#F5F5F5"/>
<path d="M135.868 61.384L140.296 62.528L140.316 57.956C139.168 57.724 137.916 57.412 136.604 57.012L135.868 61.384Z" fill="#F5F5F5"/>
<path d="M75.252 155.772L75.32 158.172H75.72L75.652 155.74L107.432 153.74C107.372 155.3 107.312 156.812 107.26 158.18H108.06C108.112 156.888 108.172 155.34 108.236 153.688L115.096 153.252L116.076 158.18H116.476L115.492 153.228L131.092 152.244L131.272 158.18H133.272L133.088 152.116L139.912 151.684L139.864 150.884L133.064 151.316L132.7 139.124L139.9 138.724L139.876 138.324L132.676 138.724L132.368 128.536L133.252 124.868L140.028 124.184V123.784L133.352 124.46L135.488 115.568L135.268 113.296C136.232 113.48 138.02 113.92 140.068 114.46V113.2C137.312 112.472 135.896 112.172 135.148 112.06L133.348 93.468L140.148 92.812V92.012L133.26 92.676L132.168 81.428L140.168 81.984V80.784L132.024 80.22L131.572 75.532L133.392 68.98L140.192 71.132V69.04L130.916 66.108L131.104 61.408L140.216 63.764V62.524L135.788 61.38L136.524 57.008C137.852 57.408 139.088 57.72 140.236 57.952V57.552C139.006 57.3026 137.79 56.9916 136.592 56.62L137.324 52.26L140.256 52.488V51.688L136.656 51.408L135.82 56.368C133.684 55.568 128.96 52.92 129.188 45.4L140.304 41V40.492L140.184 40.184L129.192 44.536V25.624H128.792V44.692L124.16 46.528L117.2 32.552C116.87 32.7901 116.487 32.9451 116.084 33.004L123.04 46.972L112.428 51.2L112.668 52.18L104.268 52.524L103.948 32.976H103.548L103.868 52.54L89.136 53.14C89.112 50.124 89.08 47.304 89.064 45.736V45.568L88.16 25.436H87.76L88.664 45.516L73.532 43.344L77.132 25.388H76.1H75.908L72.34 43.168L67.54 42.48L67.5 42.74V42.876L72.268 43.56L68.444 62.612L67.416 62.536V64.536L74.908 65.092V74.968L67.364 76.676V77.908L76.112 75.908V65.2L104.112 67.276V78.724H95.152L93.976 84.052H86.684L67.312 87.576V88.796L86.8 85.232H108.992L109.792 94.944L86.712 97.16L86.788 97.96L109.86 95.744L111.388 114.356L88.08 111.312L87.924 112.512L111.488 115.592L112.4 126.572L87.732 129.06L74.932 129.968V113.2L87.056 106.128L86.452 105.092L74.592 112L67.2 111.016V112.216L74.516 113.2V123.876L67.156 124.656V125.856L74.524 125.076V130.4L74.96 145.492L67.06 148.588V149.876L75.004 146.764L75.24 154.984L67.036 155.504V155.772L67.068 156.304L75.252 155.772ZM108.268 152.884C108.292 152.172 108.32 151.452 108.348 150.724H114.596L114.94 152.444L108.268 152.884ZM115.34 152.436L114.94 150.512L114.008 141.712L113.484 135.312L130.524 134.024L131.048 151.428L115.34 152.436ZM119.2 126.284L128.168 125.38L127.916 128.9L119.88 129.764L119.2 126.284ZM118.8 126.324L120.3 134.004L113.416 134.524L112.792 126.924L118.8 126.324ZM130.5 133.236L120.704 133.976L120.036 130.552L128.668 129.624L128.976 125.296L131.136 125.08L130.356 128.328L130.5 133.236ZM118.9 105.6L120.648 113.448L111.764 114.372L111.124 106.56L118.9 105.6ZM121.052 113.404L119.296 105.552L132.352 103.952L133.152 112.156L121.052 113.404ZM130.04 80.084L110.344 78.72L112.22 67.856L113.596 67.96H130.192L131.524 68.384L129.6 75.36L130.04 80.084ZM128.84 45.552C128.82 47.616 129.272 54.432 135.808 56.752L135.088 61.2L131.024 60.148L124.604 47.24L128.84 45.552ZM123.456 47.684L130 60.776L129.792 65.976H116.848L113.372 51.704L123.456 47.684ZM112.736 52.576L115.996 65.96H113.72L104.496 65.28L104.292 52.924L112.736 52.576ZM103.864 52.94L104.064 65.248L89.108 64.14C89.172 62.14 89.16 57.704 89.108 53.54L103.864 52.94ZM73.428 43.74L88.652 45.924C88.728 52.244 88.796 61.204 88.72 64.124L69.62 62.708L73.428 43.74ZM111.804 67.84L109.004 84.044H104.512V67.284L111.804 67.84ZM96.088 79.916H104.088V84.044H95.2L96.088 79.916ZM109.288 84.652L110.088 79.924L130.108 81.308L131.228 92.884L110.116 94.916L109.288 84.652ZM131.32 93.684L132.2 102.76L111 105.376L110.2 95.712L131.32 93.684ZM111.828 115.58L133.224 113.352L133.428 115.436L131.204 124.68L112.728 126.544L111.828 115.58ZM113.58 141.776L114.488 150.352H108.364C108.472 147.524 108.576 144.696 108.652 142.572C108.784 138.76 108.784 138.76 108.532 138.636L108.34 139.012L107.94 139.032C107.94 139.364 107.768 144.592 107.54 150.18L89.72 141.6L89.088 129.308L112.4 126.972L113.58 141.776ZM87.476 129.488L87.352 145.268L75.32 145.84L74.872 130.38L87.476 129.488ZM75.34 146.608V146.248L87.76 145.66L87.892 129.46L88.652 129.384L89.296 141.892L107.516 150.624C107.488 151.4 107.456 152.18 107.428 152.956L75.592 154.956L75.34 146.608Z" fill="white"/>
<path d="M93.54 146.04L76.156 147.256V152.84L104.852 151.284L93.54 146.04Z" fill="#EBEBEB"/>
<path d="M129.352 82.7479L111.964 81.6479L110.888 84.632L111.476 93.5239L130.356 91.284L129.352 82.7479Z" fill="#EBEBEB"/>
<path d="M75.452 179.292L131.264 179.548C132.385 179.554 133.496 179.339 134.534 178.915C135.571 178.491 136.515 177.866 137.311 177.077C138.107 176.288 138.74 175.35 139.173 174.316C139.607 173.282 139.832 172.173 139.836 171.052L139.892 158.18H67.012L66.972 167.916V170.98C67.0281 173.196 67.9447 175.303 69.5277 176.854C71.1106 178.406 73.2355 179.28 75.452 179.292Z" fill="#EBEBEB"/>
<path d="M87.028 43.816L86.74 27.464H78.248L75.784 42.172L87.028 43.816Z" fill="#EBEBEB"/>
<path d="M128.2 64.188L129.064 60.644L123.088 49.276L115.42 53.052L117.976 63.804L128.2 64.188Z" fill="#EBEBEB"/>
<path d="M76.156 114C76.248 114.516 76.156 128.348 76.156 128.348L87.356 127.644L86.072 108.736L76.156 114Z" fill="#EBEBEB"/>
<path d="M113.436 125.248L112.844 116.676L132.016 114.212V115.692L129.696 123.576L113.436 125.248Z" fill="#EBEBEB"/>
<path d="M99.256 54.156C99.256 54.618 99.119 55.0697 98.8623 55.4538C98.6056 55.838 98.2408 56.1374 97.8139 56.3142C97.3871 56.491 96.9174 56.5373 96.4643 56.4471C96.0111 56.357 95.5949 56.1345 95.2682 55.8078C94.9415 55.4811 94.719 55.0649 94.6289 54.6117C94.5387 54.1586 94.585 53.6889 94.7618 53.2621C94.9386 52.8352 95.238 52.4704 95.6222 52.2137C96.0063 51.957 96.458 51.82 96.92 51.82C97.5395 51.82 98.1337 52.0661 98.5718 52.5042C99.0099 52.9423 99.256 53.5365 99.256 54.156Z" fill="#28DF99"/>
<g opacity="0.6">
<path opacity="0.6" d="M99.252 54.056C99.2722 54.5177 99.1549 54.975 98.9151 55.3701C98.6752 55.7652 98.3236 56.0802 97.9047 56.2754C97.4857 56.4706 97.0183 56.5371 96.5615 56.4665C96.1048 56.3959 95.6792 56.1915 95.3387 55.8789C94.9982 55.5664 94.758 55.1599 94.6486 54.7109C94.5392 54.2619 94.5654 53.7905 94.724 53.3564C94.8826 52.9222 95.1664 52.5449 95.5395 52.2722C95.9126 51.9994 96.3582 51.8434 96.82 51.824C97.4384 51.7979 98.0418 52.0184 98.4977 52.4369C98.9537 52.8553 99.225 53.4377 99.252 54.056Z" fill="white"/>
</g>
<path d="M96.92 55.628C97.7771 55.628 98.472 54.9331 98.472 54.076C98.472 53.2188 97.7771 52.524 96.92 52.524C96.0628 52.524 95.368 53.2188 95.368 54.076C95.368 54.9331 96.0628 55.628 96.92 55.628Z" fill="#28DF99"/>
<path d="M133.012 147.416C133.009 147.613 132.948 147.804 132.837 147.966C132.725 148.128 132.569 148.254 132.386 148.327C132.204 148.401 132.004 148.419 131.812 148.38C131.619 148.34 131.442 148.245 131.304 148.106C131.165 147.966 131.07 147.789 131.032 147.597C130.993 147.404 131.012 147.204 131.086 147.022C131.161 146.84 131.287 146.684 131.449 146.573C131.612 146.463 131.803 146.402 132 146.4C132.134 146.398 132.266 146.424 132.39 146.474C132.514 146.525 132.626 146.599 132.721 146.694C132.815 146.789 132.889 146.902 132.939 147.026C132.989 147.15 133.014 147.282 133.012 147.416Z" fill="#28DF99"/>
<path d="M131.416 147.092L131.172 141.492L114.324 142.312C113.882 142.332 113.443 142.239 113.048 142.04L89.148 129.968C88.876 129.83 88.6452 129.623 88.4788 129.367C88.3123 129.112 88.2162 128.817 88.2 128.512L84.944 65.416C84.9362 65.2665 84.9603 65.1171 85.0148 64.9777C85.0693 64.8383 85.1529 64.7122 85.2601 64.6077C85.3672 64.5032 85.4954 64.4228 85.6361 64.3718C85.7768 64.3208 85.9268 64.3004 86.076 64.312L96.32 65.068V53.868H97.52V65.22C97.5229 65.365 97.4959 65.509 97.4409 65.6432C97.3858 65.7773 97.3039 65.8988 97.2 66C97.0922 66.0977 96.9658 66.1725 96.8283 66.2199C96.6908 66.2674 96.5451 66.2864 96.4 66.276L86.164 65.52L89.408 128.452C89.4139 128.545 89.4439 128.635 89.4951 128.713C89.5463 128.791 89.6169 128.854 89.7 128.896L113.6 140.976C113.809 141.082 114.042 141.131 114.276 141.12L131.268 140.292C131.549 140.28 131.824 140.379 132.032 140.568C132.136 140.662 132.221 140.776 132.281 140.903C132.341 141.03 132.374 141.168 132.38 141.308L132.624 147.04L131.416 147.092Z" fill="#28DF99"/>
<path d="M86.904 95.844C88.5741 95.844 89.928 94.4901 89.928 92.82C89.928 91.1499 88.5741 89.796 86.904 89.796C85.2339 89.796 83.88 91.1499 83.88 92.82C83.88 94.4901 85.2339 95.844 86.904 95.844Z" fill="#28DF99"/>
<path d="M86.904 94.92C88.0638 94.92 89.004 93.9798 89.004 92.82C89.004 91.6602 88.0638 90.72 86.904 90.72C85.7442 90.72 84.804 91.6602 84.804 92.82C84.804 93.9798 85.7442 94.92 86.904 94.92Z" fill="#FAFAFA"/>
<path d="M86.9039 95.072C86.4584 95.0728 86.0226 94.9414 85.6517 94.6944C85.2809 94.4474 84.9916 94.096 84.8205 93.6846C84.6495 93.2731 84.6043 92.8202 84.6907 92.3831C84.7772 91.946 84.9913 91.5444 85.3061 91.229C85.6209 90.9137 86.0222 90.6988 86.4591 90.6116C86.8961 90.5243 87.3491 90.5687 87.7608 90.739C88.1726 90.9094 88.5245 91.198 88.7721 91.5684C89.0198 91.9389 89.1519 92.3744 89.1519 92.82C89.1509 93.4162 88.9138 93.9878 88.4926 94.4098C88.0714 94.8318 87.5002 95.0699 86.9039 95.072ZM86.9039 90.868C86.5177 90.8672 86.1399 90.981 85.8184 91.195C85.4969 91.409 85.246 91.7136 85.0977 92.0702C84.9493 92.4268 84.9101 92.8194 84.985 93.1983C85.0598 93.5773 85.2454 93.9254 85.5183 94.1988C85.7911 94.4722 86.1389 94.6585 86.5177 94.7342C86.8964 94.8098 87.2891 94.7714 87.646 94.6238C88.0029 94.4762 88.308 94.226 88.5227 93.9049C88.7374 93.5838 88.8519 93.2062 88.8519 92.82C88.8509 92.3033 88.6454 91.808 88.2805 91.4423C87.9155 91.0766 87.4206 90.8701 86.9039 90.868Z" fill="#28DF99"/>
<path d="M104.716 80.136H90.316C89.9797 80.136 89.6572 80.2696 89.4194 80.5074C89.1816 80.7452 89.048 81.0677 89.048 81.404V86.604C89.048 86.9403 89.1816 87.2628 89.4194 87.5006C89.6572 87.7384 89.9797 87.872 90.316 87.872H90.484V89.116L91.928 87.872H104.728C105.064 87.872 105.387 87.7384 105.625 87.5006C105.862 87.2628 105.996 86.9403 105.996 86.604V81.404C105.996 81.2364 105.963 81.0706 105.898 80.9159C105.834 80.7613 105.739 80.621 105.62 80.5031C105.501 80.3852 105.36 80.292 105.205 80.229C105.05 80.166 104.884 80.1344 104.716 80.136Z" fill="#28DF99"/>
<g opacity="0.4">
<path opacity="0.4" d="M104.716 80.136H90.316C89.9797 80.136 89.6572 80.2696 89.4194 80.5074C89.1816 80.7452 89.048 81.0677 89.048 81.404V86.604C89.048 86.9403 89.1816 87.2628 89.4194 87.5006C89.6572 87.7384 89.9797 87.872 90.316 87.872H90.484V89.116L91.928 87.872H104.728C105.064 87.872 105.387 87.7384 105.625 87.5006C105.862 87.2628 105.996 86.9403 105.996 86.604V81.404C105.996 81.2364 105.963 81.0706 105.898 80.9159C105.834 80.7613 105.739 80.621 105.62 80.5031C105.501 80.3852 105.36 80.292 105.205 80.229C105.05 80.166 104.884 80.1344 104.716 80.136Z" fill="white"/>
</g>
<path d="M92.288 83.928C92.2816 83.756 92.3267 83.5861 92.4175 83.44C92.5084 83.2938 92.6407 83.1781 92.7977 83.1077C92.9547 83.0373 93.1291 83.0153 93.2986 83.0446C93.4682 83.0739 93.6251 83.1532 93.7493 83.2722C93.8735 83.3913 93.9593 83.5447 93.9958 83.7129C94.0323 83.881 94.0177 84.0562 93.954 84.216C93.8902 84.3758 93.7802 84.513 93.6381 84.6099C93.4959 84.7068 93.3281 84.7591 93.156 84.76C93.0436 84.7654 92.9313 84.7479 92.8259 84.7085C92.7205 84.669 92.6243 84.6086 92.543 84.5307C92.4618 84.4528 92.3973 84.3592 92.3534 84.2556C92.3096 84.152 92.2873 84.0405 92.288 83.928ZM93.784 83.928C93.7848 83.8026 93.7483 83.6799 93.6792 83.5754C93.61 83.4708 93.5114 83.3892 93.3957 83.3409C93.2801 83.2925 93.1527 83.2797 93.0297 83.3039C92.9067 83.3282 92.7938 83.3885 92.7051 83.4771C92.6165 83.5657 92.5562 83.6787 92.532 83.8017C92.5077 83.9246 92.5206 84.052 92.5689 84.1677C92.6172 84.2833 92.6988 84.382 92.8034 84.4511C92.9079 84.5203 93.0307 84.5568 93.156 84.556C93.2392 84.5588 93.3221 84.5444 93.3996 84.5138C93.477 84.4833 93.5474 84.4371 93.6063 84.3782C93.6652 84.3194 93.7113 84.249 93.7419 84.1716C93.7725 84.0941 93.7868 84.0112 93.784 83.928Z" fill="white"/>
<path d="M95.6 84.128C95.6045 84.211 95.5916 84.294 95.5622 84.3717C95.5327 84.4494 95.4874 84.5201 95.429 84.5792C95.3706 84.6384 95.3005 84.6847 95.2232 84.7151C95.1458 84.7455 95.063 84.7595 94.98 84.756C94.8952 84.7602 94.8107 84.7434 94.7339 84.7071C94.6572 84.6708 94.5905 84.6162 94.54 84.548V84.744H94.324V83.016H94.548V83.696C94.5997 83.6319 94.6657 83.5808 94.7407 83.5467C94.8157 83.5127 94.8977 83.4967 94.98 83.5C95.063 83.4965 95.1458 83.5105 95.2232 83.5409C95.3005 83.5713 95.3706 83.6176 95.429 83.6767C95.4874 83.7359 95.5327 83.8066 95.5622 83.8843C95.5916 83.962 95.6045 84.045 95.6 84.128ZM95.376 84.128C95.3698 84.0506 95.3411 83.9766 95.2936 83.9152C95.246 83.8537 95.1816 83.8075 95.1082 83.782C95.0348 83.7566 94.9555 83.7531 94.8802 83.772C94.8048 83.7908 94.7365 83.8312 94.6838 83.8882C94.631 83.9452 94.5959 84.0164 94.5829 84.093C94.5699 84.1696 94.5795 84.2483 94.6105 84.3196C94.6415 84.3908 94.6925 84.4515 94.7574 84.4942C94.8223 84.5369 94.8983 84.5597 94.976 84.56C95.0326 84.5624 95.0892 84.5528 95.1418 84.5318C95.1945 84.5107 95.2421 84.4787 95.2814 84.4378C95.3208 84.397 95.351 84.3482 95.37 84.2948C95.3891 84.2414 95.3966 84.1845 95.392 84.128H95.376Z" fill="white"/>
<path d="M95.5 85.132L95.572 84.96C95.6241 85.0015 95.6894 85.0228 95.756 85.02C95.872 85.02 95.94 84.944 95.94 84.804V83.512H96.16V84.8C96.1649 84.8537 96.158 84.9079 96.1396 84.9587C96.1212 85.0094 96.0919 85.0555 96.0538 85.0937C96.0156 85.1319 95.9695 85.1612 95.9187 85.1795C95.8679 85.1979 95.8138 85.2049 95.76 85.2C95.6684 85.2047 95.5776 85.1809 95.5 85.132ZM95.9 83.132C95.9 83.1127 95.9038 83.0936 95.9113 83.0759C95.9188 83.0582 95.9298 83.0421 95.9436 83.0287C95.9574 83.0153 95.9737 83.0047 95.9917 82.9977C96.0096 82.9908 96.0288 82.9874 96.048 82.988C96.0672 82.9869 96.0865 82.9897 96.1046 82.9962C96.1228 83.0027 96.1394 83.0128 96.1536 83.0258C96.1678 83.0389 96.1792 83.0546 96.1872 83.0722C96.1951 83.0897 96.1995 83.1087 96.2 83.128C96.2006 83.1479 96.197 83.1677 96.1895 83.1862C96.1821 83.2047 96.1708 83.2214 96.1565 83.2354C96.1422 83.2493 96.1252 83.2601 96.1065 83.2671C96.0878 83.274 96.0679 83.2771 96.048 83.276C96.0283 83.2771 96.0085 83.2741 95.99 83.2671C95.9715 83.26 95.9547 83.2492 95.9408 83.2352C95.9268 83.2212 95.9159 83.2044 95.9089 83.1859C95.9019 83.1675 95.8988 83.1477 95.9 83.128V83.132Z" fill="white"/>
<path d="M97.696 84.2H96.696C96.7009 84.2533 96.7166 84.3052 96.7419 84.3524C96.7673 84.3996 96.8019 84.4413 96.8437 84.4749C96.8855 84.5084 96.9336 84.5333 96.9852 84.5479C97.0368 84.5625 97.0908 84.5666 97.144 84.56C97.2105 84.5622 97.2767 84.5502 97.3381 84.5247C97.3995 84.4991 97.4547 84.4607 97.5 84.412L97.624 84.556C97.5325 84.6474 97.4166 84.7107 97.2902 84.7383C97.1637 84.7659 97.032 84.7566 96.9107 84.7115C96.7894 84.6664 96.6836 84.5875 96.6058 84.484C96.528 84.3806 96.4816 84.257 96.472 84.128C96.4687 84.0453 96.4824 83.9628 96.5122 83.8856C96.5421 83.8085 96.5875 83.7383 96.6457 83.6794C96.7038 83.6205 96.7734 83.5742 96.8502 83.5433C96.927 83.5124 97.0093 83.4977 97.092 83.4999C97.1746 83.4975 97.2567 83.5124 97.3332 83.5436C97.4096 83.5749 97.4787 83.6217 97.536 83.6813C97.5933 83.7408 97.6374 83.8116 97.6657 83.8893C97.6939 83.9669 97.7056 84.0495 97.7 84.132C97.7006 84.1547 97.6993 84.1774 97.696 84.2ZM96.696 84.04H97.496C97.496 83.9339 97.4539 83.8321 97.3788 83.7571C97.3038 83.6821 97.2021 83.64 97.096 83.64C96.9899 83.64 96.8882 83.6821 96.8131 83.7571C96.7381 83.8321 96.696 83.9339 96.696 84.04Z" fill="white"/>
<path d="M97.896 84.128C97.8942 84.043 97.91 83.9585 97.9425 83.8799C97.9749 83.8013 98.0233 83.7303 98.0845 83.6713C98.1458 83.6123 98.2186 83.5666 98.2983 83.5371C98.3781 83.5076 98.4631 83.495 98.548 83.5C98.6471 83.4935 98.7462 83.5144 98.8343 83.5602C98.9224 83.606 98.9963 83.6751 99.048 83.76L98.88 83.872C98.8434 83.8164 98.7935 83.7708 98.7348 83.7394C98.6762 83.708 98.6106 83.6917 98.544 83.692C98.4361 83.7024 98.3359 83.7526 98.263 83.8328C98.1901 83.913 98.1497 84.0176 98.1497 84.126C98.1497 84.2344 98.1901 84.3389 98.263 84.4192C98.3359 84.4994 98.4361 84.5496 98.544 84.56C98.6102 84.5607 98.6755 84.5451 98.7342 84.5143C98.7928 84.4836 98.8429 84.4388 98.88 84.384L99.048 84.492C98.9965 84.5773 98.9228 84.6469 98.8347 84.6934C98.7466 84.74 98.6475 84.7616 98.548 84.756C98.4633 84.7604 98.3785 84.7473 98.299 84.7176C98.2195 84.6879 98.147 84.6422 98.0858 84.5834C98.0247 84.5245 97.9763 84.4537 97.9437 84.3754C97.911 84.297 97.8948 84.2128 97.896 84.128Z" fill="white"/>
<path d="M100.048 84.672C99.9691 84.7294 99.8735 84.7589 99.776 84.756C99.7214 84.765 99.6655 84.7609 99.6129 84.7439C99.5602 84.727 99.5124 84.6978 99.4733 84.6587C99.4342 84.6196 99.405 84.5718 99.388 84.5191C99.3711 84.4665 99.367 84.4106 99.376 84.356V83.676H99.164V83.496H99.376V83.224H99.6V83.496H99.952V83.676H99.6V84.344C99.5957 84.3709 99.5975 84.3985 99.6054 84.4246C99.6133 84.4507 99.627 84.4746 99.6455 84.4947C99.6639 84.5147 99.6867 84.5303 99.7121 84.5402C99.7375 84.5501 99.7648 84.5542 99.792 84.552C99.854 84.5532 99.9146 84.5335 99.964 84.496L100.048 84.672Z" fill="white"/>
<path d="M100.276 83.128C100.277 83.1086 100.281 83.0894 100.289 83.0716C100.297 83.0539 100.308 83.0379 100.322 83.0245C100.336 83.0111 100.353 83.0007 100.371 82.9937C100.389 82.9868 100.409 82.9835 100.428 82.984C100.447 82.9829 100.467 82.9857 100.485 82.9922C100.503 82.9987 100.519 83.0088 100.534 83.0218C100.548 83.0349 100.559 83.0507 100.567 83.0682C100.575 83.0858 100.58 83.1047 100.58 83.124C100.58 83.1643 100.564 83.203 100.535 83.2315C100.507 83.26 100.468 83.276 100.428 83.276C100.388 83.276 100.349 83.26 100.321 83.2315C100.292 83.203 100.276 83.1643 100.276 83.124V83.128ZM100.316 83.528H100.54V84.76H100.316V83.528Z" fill="white"/>
<path d="M102.056 83.512L101.516 84.744H101.288L100.748 83.512H100.984L101.384 84.5L101.816 83.512H102.056Z" fill="white"/>
<path d="M103.34 84.2H102.34C102.345 84.2533 102.361 84.3052 102.386 84.3524C102.411 84.3996 102.446 84.4413 102.488 84.4749C102.529 84.5084 102.578 84.5333 102.629 84.5479C102.681 84.5625 102.735 84.5666 102.788 84.56C102.854 84.5622 102.921 84.5502 102.982 84.5247C103.043 84.4991 103.099 84.4607 103.144 84.412L103.264 84.556C103.203 84.6235 103.129 84.6765 103.045 84.7111C102.961 84.7458 102.87 84.7611 102.78 84.756C102.694 84.7621 102.608 84.7503 102.527 84.7214C102.446 84.6924 102.372 84.647 102.31 84.588C102.247 84.5289 102.198 84.4575 102.165 84.3783C102.131 84.2991 102.115 84.2139 102.116 84.128C102.113 84.0453 102.126 83.9628 102.156 83.8856C102.186 83.8085 102.232 83.7383 102.29 83.6794C102.348 83.6205 102.417 83.5742 102.494 83.5433C102.571 83.5124 102.653 83.4977 102.736 83.4999C102.819 83.4975 102.901 83.5124 102.977 83.5436C103.054 83.5749 103.123 83.6217 103.18 83.6813C103.237 83.7408 103.281 83.8116 103.31 83.8893C103.338 83.9669 103.35 84.0495 103.344 84.132C103.345 84.1547 103.343 84.1774 103.34 84.2ZM102.34 84.04H103.14C103.14 83.9339 103.098 83.8321 103.023 83.7571C102.948 83.6821 102.846 83.64 102.74 83.64C102.634 83.64 102.532 83.6821 102.457 83.7571C102.382 83.8321 102.34 83.9339 102.34 84.04Z" fill="white"/>
<path d="M99.96 46.312C99.9636 45.8502 99.8602 45.3938 99.658 44.9786C99.4557 44.5634 99.1601 44.2006 98.7943 43.9187C98.4285 43.6368 98.0023 43.4435 97.5493 43.3537C97.0963 43.264 96.6286 43.2804 96.1829 43.4016C95.7373 43.5228 95.3257 43.7455 94.9805 44.0523C94.6353 44.3591 94.3658 44.7416 94.1931 45.17C94.0204 45.5983 93.9492 46.0608 93.9851 46.5213C94.021 46.9817 94.163 47.4276 94.4 47.824C94.516 48.016 94.66 48.156 94.8 48.36L96.54 50.66C96.5903 50.7271 96.6555 50.7815 96.7305 50.819C96.8055 50.8565 96.8882 50.876 96.972 50.876C97.0558 50.876 97.1385 50.8565 97.2135 50.819C97.2885 50.7815 97.3537 50.7271 97.404 50.66L99.112 48.396C99.2681 48.2124 99.4137 48.0201 99.548 47.82C99.8169 47.3629 99.9591 46.8423 99.96 46.312ZM96.968 47.6C96.7067 47.6008 96.4512 47.524 96.2336 47.3795C96.016 47.2349 95.8461 47.029 95.7456 46.7879C95.6451 46.5468 95.6184 46.2813 95.6689 46.0249C95.7193 45.7686 95.8447 45.533 96.0292 45.348C96.2136 45.163 96.4488 45.0369 96.705 44.9857C96.9612 44.9344 97.2268 44.9603 97.4682 45.0601C97.7096 45.1599 97.916 45.3291 98.0613 45.5462C98.2065 45.7634 98.284 46.0188 98.284 46.28C98.284 46.6294 98.1455 46.9645 97.8988 47.212C97.6521 47.4594 97.3174 47.5989 96.968 47.6Z" fill="#28DF99"/>
<path d="M80.576 164.26H80.02V164.056H81.364V164.26H80.8V165.684H80.568L80.576 164.26Z" fill="#263238"/>
<path d="M81.344 165.068C81.3424 164.941 81.3785 164.817 81.4477 164.711C81.5168 164.605 81.616 164.521 81.7326 164.471C81.8491 164.422 81.9778 164.408 82.1024 164.431C82.227 164.455 82.3417 164.514 82.4322 164.603C82.5227 164.692 82.5847 164.806 82.6105 164.93C82.6363 165.054 82.6247 165.183 82.5771 165.3C82.5295 165.418 82.4481 165.518 82.3433 165.59C82.2384 165.661 82.1147 165.699 81.988 165.7C81.9032 165.704 81.8185 165.691 81.7391 165.661C81.6598 165.631 81.5875 165.585 81.527 165.526C81.4664 165.466 81.4189 165.395 81.3874 165.316C81.3559 165.237 81.3411 165.153 81.344 165.068ZM82.4 165.068C82.4 164.958 82.3564 164.853 82.2787 164.775C82.2011 164.698 82.0958 164.654 81.986 164.654C81.8762 164.654 81.7709 164.698 81.6932 164.775C81.6156 164.853 81.572 164.958 81.572 165.068C81.572 165.178 81.6156 165.283 81.6932 165.361C81.7709 165.438 81.8762 165.482 81.986 165.482C82.0958 165.482 82.2011 165.438 82.2787 165.361C82.3564 165.283 82.4 165.178 82.4 165.068Z" fill="#263238"/>
<path d="M83.628 165.6C83.5523 165.661 83.4571 165.692 83.36 165.688C83.3056 165.696 83.2501 165.691 83.1979 165.674C83.1456 165.657 83.0982 165.628 83.0593 165.589C83.0204 165.55 82.9911 165.502 82.9739 165.45C82.9567 165.398 82.9519 165.342 82.96 165.288V164.612H82.752V164.428H82.96V164.16H83.2V164.428H83.552V164.612H83.2V165.28C83.1957 165.307 83.1975 165.334 83.2054 165.361C83.2133 165.387 83.227 165.411 83.2455 165.431C83.264 165.451 83.2868 165.466 83.3121 165.476C83.3375 165.486 83.3648 165.49 83.392 165.488C83.4555 165.487 83.5172 165.466 83.568 165.428L83.628 165.6Z" fill="#263238"/>
<path d="M84.876 164.94V165.684H84.664V165.524C84.6167 165.584 84.5555 165.631 84.4858 165.662C84.4161 165.692 84.3399 165.705 84.264 165.7C83.984 165.7 83.808 165.552 83.808 165.336C83.808 165.12 83.936 164.976 84.3 164.976H84.656V164.932C84.656 164.744 84.548 164.632 84.324 164.632C84.1786 164.627 84.0364 164.676 83.924 164.768L83.828 164.6C83.9752 164.489 84.156 164.433 84.34 164.44C84.4099 164.428 84.4817 164.432 84.5498 164.452C84.6178 164.473 84.6802 164.508 84.7321 164.557C84.784 164.605 84.8241 164.665 84.849 164.732C84.874 164.798 84.8832 164.869 84.876 164.94ZM84.652 165.308V165.136H84.308C84.088 165.136 84.024 165.224 84.024 165.328C84.024 165.432 84.124 165.528 84.296 165.528C84.371 165.534 84.4458 165.515 84.5097 165.476C84.5737 165.436 84.6235 165.378 84.652 165.308Z" fill="#263238"/>
<path d="M85.288 163.96H85.512V165.684H85.288V163.96Z" fill="#263238"/>
<path d="M87.724 163.96V165.684H87.512V165.488C87.4614 165.556 87.3949 165.611 87.3182 165.648C87.2416 165.685 87.157 165.703 87.072 165.7C86.9136 165.687 86.7657 165.616 86.6579 165.499C86.5501 165.382 86.4902 165.229 86.4902 165.07C86.4902 164.911 86.5501 164.758 86.6579 164.641C86.7657 164.524 86.9136 164.453 87.072 164.44C87.1547 164.437 87.2371 164.453 87.3122 164.488C87.3874 164.522 87.4531 164.575 87.504 164.64V163.96H87.724ZM87.504 165.068C87.497 164.991 87.4678 164.917 87.4198 164.856C87.3718 164.796 87.3072 164.75 87.2338 164.725C87.1603 164.7 87.0813 164.697 87.0062 164.717C86.9311 164.736 86.8633 164.776 86.8109 164.834C86.7585 164.891 86.7238 164.962 86.7111 165.038C86.6983 165.115 86.7081 165.193 86.7391 165.264C86.7702 165.335 86.8212 165.396 86.886 165.438C86.9507 165.481 87.0265 165.504 87.104 165.504C87.1597 165.504 87.2148 165.493 87.2659 165.47C87.3169 165.448 87.3627 165.415 87.4004 165.374C87.438 165.333 87.4667 165.285 87.4845 165.232C87.5024 165.179 87.509 165.123 87.504 165.068Z" fill="#263238"/>
<path d="M88.108 164.072C88.108 164.052 88.1119 164.033 88.1196 164.014C88.1273 163.996 88.1386 163.98 88.1527 163.966C88.1669 163.952 88.1837 163.941 88.2021 163.934C88.2205 163.927 88.2402 163.923 88.26 163.924C88.2812 163.92 88.3029 163.922 88.3236 163.927C88.3443 163.933 88.3635 163.943 88.3799 163.957C88.3963 163.971 88.4095 163.988 88.4185 164.008C88.4275 164.027 88.4322 164.049 88.4322 164.07C88.4322 164.091 88.4275 164.113 88.4185 164.132C88.4095 164.152 88.3963 164.169 88.3799 164.183C88.3635 164.197 88.3443 164.207 88.3236 164.213C88.3029 164.218 88.2812 164.22 88.26 164.216C88.2405 164.217 88.2212 164.213 88.203 164.206C88.1849 164.199 88.1682 164.189 88.1541 164.176C88.14 164.162 88.1287 164.146 88.1208 164.128C88.1128 164.111 88.1085 164.091 88.108 164.072ZM88.148 164.452H88.372V165.684H88.148V164.452Z" fill="#263238"/>
<path d="M88.64 165.556L88.736 165.376C88.8642 165.46 89.0145 165.505 89.168 165.504C89.376 165.504 89.46 165.444 89.46 165.34C89.46 165.06 88.66 165.3 88.66 164.812C88.66 164.588 88.86 164.44 89.176 164.44C89.3325 164.438 89.4867 164.477 89.624 164.552L89.528 164.728C89.4211 164.662 89.2975 164.629 89.172 164.632C88.976 164.632 88.884 164.704 88.884 164.8C88.884 165.092 89.684 164.856 89.684 165.332C89.684 165.556 89.48 165.7 89.152 165.7C88.9709 165.704 88.7927 165.654 88.64 165.556Z" fill="#263238"/>
<path d="M90.656 165.6C90.5792 165.662 90.4824 165.693 90.384 165.688C90.3296 165.696 90.274 165.691 90.2218 165.674C90.1696 165.657 90.1221 165.628 90.0832 165.589C90.0443 165.55 90.0151 165.502 89.9979 165.45C89.9806 165.398 89.9759 165.342 89.984 165.288V164.612H89.772V164.428H90V164.16H90.224V164.428H90.576V164.612H90.224V165.28C90.2196 165.307 90.2215 165.334 90.2294 165.361C90.2372 165.387 90.2509 165.411 90.2694 165.431C90.2879 165.451 90.3107 165.466 90.3361 165.476C90.3615 165.486 90.3888 165.49 90.416 165.488C90.4784 165.488 90.5389 165.467 90.588 165.428L90.656 165.6Z" fill="#263238"/>
<path d="M91.904 164.94V165.684H91.692V165.524C91.6445 165.583 91.5833 165.63 91.5136 165.661C91.444 165.692 91.3679 165.705 91.292 165.7C91.016 165.7 90.836 165.552 90.836 165.336C90.836 165.12 90.964 164.976 91.332 164.976H91.688V164.932C91.688 164.744 91.576 164.632 91.356 164.632C91.2109 164.629 91.0693 164.677 90.956 164.768L90.864 164.6C91.0112 164.489 91.192 164.433 91.376 164.44C91.4454 164.429 91.5163 164.435 91.5833 164.456C91.6503 164.476 91.7116 164.512 91.7625 164.561C91.8135 164.609 91.8527 164.668 91.8773 164.734C91.9018 164.8 91.9109 164.87 91.904 164.94ZM91.68 165.308V165.136H91.336C91.112 165.136 91.052 165.224 91.052 165.328C91.052 165.432 91.152 165.528 91.324 165.528C91.399 165.534 91.4738 165.515 91.5377 165.476C91.6017 165.436 91.6515 165.378 91.68 165.308Z" fill="#263238"/>
<path d="M93.484 164.976V165.684H93.264V165C93.264 164.76 93.14 164.64 92.928 164.64C92.8743 164.635 92.8201 164.642 92.7693 164.66C92.7185 164.679 92.6724 164.708 92.6343 164.746C92.5961 164.784 92.5668 164.831 92.5484 164.881C92.5301 164.932 92.5231 164.986 92.528 165.04V165.672H92.304V164.44H92.516V164.628C92.5692 164.561 92.6376 164.508 92.7156 164.473C92.7936 164.438 92.8788 164.423 92.964 164.428C93.0367 164.42 93.1101 164.429 93.1786 164.455C93.2471 164.48 93.3089 164.521 93.3592 164.574C93.4095 164.627 93.4469 164.691 93.4685 164.76C93.4902 164.83 93.4955 164.904 93.484 164.976Z" fill="#263238"/>
<path d="M93.792 165.068C93.7902 164.983 93.806 164.898 93.8385 164.82C93.8709 164.741 93.9193 164.67 93.9805 164.611C94.0418 164.552 94.1146 164.507 94.1943 164.477C94.2741 164.448 94.3591 164.435 94.444 164.44C94.544 164.435 94.6436 164.456 94.7323 164.503C94.821 164.549 94.8956 164.619 94.948 164.704L94.776 164.812C94.7389 164.757 94.6888 164.712 94.6302 164.682C94.5715 164.651 94.5062 164.635 94.44 164.636C94.3321 164.646 94.2319 164.697 94.159 164.777C94.0861 164.857 94.0457 164.962 94.0457 165.07C94.0457 165.178 94.0861 165.283 94.159 165.363C94.2319 165.443 94.3321 165.494 94.44 165.504C94.5062 165.505 94.5715 165.489 94.6302 165.458C94.6888 165.428 94.7389 165.383 94.776 165.328L94.948 165.432C94.8957 165.518 94.8214 165.588 94.7327 165.635C94.644 165.682 94.5443 165.705 94.444 165.7C94.3589 165.704 94.2738 165.691 94.194 165.661C94.1143 165.631 94.0415 165.585 93.9803 165.526C93.9192 165.467 93.8709 165.395 93.8385 165.317C93.8061 165.238 93.7902 165.153 93.792 165.068Z" fill="#263238"/>
<path d="M96.324 165.144H95.324C95.3289 165.197 95.3445 165.249 95.3699 165.296C95.3953 165.344 95.4299 165.385 95.4717 165.419C95.5135 165.453 95.5616 165.477 95.6132 165.492C95.6648 165.507 95.7188 165.511 95.772 165.504C95.8385 165.506 95.9047 165.494 95.9661 165.469C96.0275 165.443 96.0827 165.405 96.128 165.356L96.252 165.5C96.1898 165.567 96.1141 165.619 96.0298 165.653C95.9456 165.688 95.8549 165.704 95.764 165.7C95.6779 165.706 95.5915 165.694 95.5103 165.665C95.4291 165.636 95.3549 165.59 95.2924 165.531C95.2299 165.471 95.1805 165.399 95.1473 165.32C95.1142 165.24 95.0981 165.154 95.1 165.068C95.0967 164.985 95.1104 164.903 95.1402 164.826C95.1701 164.749 95.2155 164.678 95.2737 164.619C95.3318 164.561 95.4014 164.514 95.4782 164.483C95.555 164.453 95.6373 164.438 95.72 164.44C95.8029 164.438 95.8854 164.453 95.9622 164.484C96.0389 164.515 96.1082 164.563 96.1656 164.623C96.2229 164.683 96.267 164.754 96.2949 164.832C96.3229 164.91 96.3342 164.993 96.328 165.076C96.3286 165.099 96.3272 165.121 96.324 165.144ZM95.324 164.984H96.124C96.124 164.878 96.0818 164.776 96.0068 164.701C95.9318 164.626 95.8301 164.584 95.724 164.584C95.6179 164.584 95.5161 164.626 95.4411 164.701C95.3661 164.776 95.324 164.878 95.324 164.984Z" fill="#263238"/>
<path d="M82.04 167.512V171.392H81.14V168.232H80.364V167.512H82.04Z" fill="#263238"/>
<path d="M83.764 170.896C83.7555 171.089 83.7049 171.277 83.616 171.448L83.296 172.248H82.748L82.992 171.368C82.8993 171.33 82.8207 171.264 82.7669 171.18C82.7132 171.095 82.687 170.996 82.692 170.896C82.692 170.754 82.7485 170.617 82.849 170.517C82.9495 170.416 83.0859 170.36 83.228 170.36C83.3702 170.36 83.5065 170.416 83.607 170.517C83.7075 170.617 83.764 170.754 83.764 170.896Z" fill="#263238"/>
<path d="M85.6 167.512V171.392H84.68V168.232H83.904V167.512H85.6Z" fill="#263238"/>
<path d="M86.256 169.452C86.256 168.172 86.964 167.452 87.92 167.452C88.876 167.452 89.584 168.18 89.584 169.452C89.584 170.724 88.88 171.452 87.92 171.452C86.96 171.452 86.256 170.732 86.256 169.452ZM88.68 169.452C88.68 168.572 88.368 168.204 87.92 168.204C87.472 168.204 87.164 168.572 87.164 169.452C87.164 170.332 87.476 170.7 87.92 170.7C88.364 170.7 88.68 170.336 88.68 169.452Z" fill="#263238"/>
<path d="M90.02 169.452C90.02 168.172 90.732 167.452 91.688 167.452C92.644 167.452 93.352 168.18 93.352 169.452C93.352 170.724 92.648 171.452 91.688 171.452C90.728 171.452 90.02 170.732 90.02 169.452ZM92.448 169.452C92.448 168.572 92.136 168.204 91.688 168.204C91.24 168.204 90.932 168.572 90.932 169.452C90.932 170.332 91.244 170.7 91.688 170.7C92.132 170.7 92.448 170.336 92.448 169.452Z" fill="#263238"/>
<path d="M100.584 169.684V171.392H99.72V169.82C99.72 169.336 99.504 169.112 99.152 169.112C98.8 169.112 98.4919 169.364 98.4919 169.912V171.408H97.628V169.836C97.628 169.352 97.4239 169.128 97.0639 169.128C96.7039 169.128 96.4079 169.38 96.4079 169.928V171.424H95.5439V168.4H96.3679V168.744C96.4855 168.612 96.6308 168.508 96.7933 168.439C96.9557 168.37 97.1315 168.337 97.3079 168.344C97.4995 168.334 97.6904 168.374 97.8622 168.459C98.0339 168.545 98.1806 168.673 98.2879 168.832C98.4185 168.674 98.5832 168.548 98.7696 168.464C98.9561 168.379 99.1593 168.338 99.364 168.344C100.076 168.364 100.584 168.776 100.584 169.684Z" fill="#263238"/>
<path d="M77.9777 167.965C78.4009 166.165 77.2848 164.362 75.4848 163.939C73.6849 163.516 71.8826 164.632 71.4595 166.432C71.0363 168.232 72.1524 170.034 73.9524 170.458C75.7523 170.881 77.5546 169.765 77.9777 167.965Z" fill="#28DF99"/>
<path d="M73.368 167.816C73.6527 167.775 73.9404 167.758 74.228 167.764C74.776 167.764 75.56 167.736 76.496 167.728L76.428 167.876C76.16 167.572 75.876 167.236 75.572 166.888L75.52 166.828L75.572 166.76L76.416 165.708L76.496 165.876H76.096H73.348L73.444 165.784C73.444 166.8 73.42 167.656 73.404 168.256C73.4106 168.573 73.3919 168.89 73.348 169.204C73.3066 168.89 73.2879 168.573 73.292 168.256C73.292 167.656 73.264 166.8 73.256 165.784V165.692H73.348H76.096H76.692L76.556 165.86L75.704 166.912V166.784L76.544 167.784L76.672 167.932H76.476C75.54 167.932 74.756 167.908 74.208 167.896C73.9262 167.894 73.6452 167.867 73.368 167.816Z" fill="#FAFAFA"/>
<path d="M128.888 161.492H118.768C118.253 161.492 117.76 161.696 117.396 162.06C117.032 162.424 116.828 162.917 116.828 163.432V171.4C116.829 171.914 117.034 172.406 117.398 172.769C117.761 173.132 118.254 173.336 118.768 173.336H119.024V175.236L121.228 173.336H128.888C129.402 173.336 129.895 173.132 130.258 172.769C130.622 172.406 130.827 171.914 130.828 171.4V163.432C130.828 162.917 130.624 162.424 130.26 162.06C129.896 161.696 129.403 161.492 128.888 161.492Z" fill="#28DF99"/>
<path d="M119.732 165.148V169.236C119.732 169.278 119.749 169.319 119.779 169.349C119.809 169.379 119.85 169.396 119.892 169.396H128.46C128.481 169.395 128.502 169.391 128.521 169.382C128.54 169.374 128.558 169.362 128.572 169.346C128.586 169.331 128.598 169.313 128.605 169.294C128.613 169.274 128.617 169.253 128.616 169.232L128.596 167.736C128.597 167.703 128.587 167.671 128.568 167.644L127.336 166C127.322 165.98 127.303 165.964 127.282 165.953C127.26 165.942 127.236 165.936 127.212 165.936H125.796C125.754 165.936 125.714 165.92 125.684 165.891C125.654 165.861 125.637 165.822 125.636 165.78V165.16C125.637 165.139 125.633 165.118 125.625 165.099C125.618 165.08 125.606 165.062 125.592 165.047C125.577 165.032 125.56 165.02 125.541 165.012C125.521 165.004 125.501 165 125.48 165H119.88C119.842 165.003 119.806 165.019 119.778 165.046C119.751 165.074 119.735 165.11 119.732 165.148Z" fill="#FAFAFA"/>
<path d="M126.036 166.284V167.6C126.036 167.624 126.046 167.648 126.063 167.665C126.08 167.682 126.104 167.692 126.128 167.692L128.02 167.66C128.036 167.659 128.052 167.654 128.066 167.645C128.08 167.636 128.091 167.624 128.098 167.609C128.106 167.594 128.109 167.578 128.108 167.562C128.107 167.545 128.101 167.529 128.092 167.516L127.2 166.204C127.192 166.191 127.181 166.181 127.167 166.173C127.154 166.166 127.139 166.163 127.124 166.164L126.116 166.192C126.093 166.194 126.072 166.205 126.057 166.222C126.043 166.239 126.035 166.261 126.036 166.284Z" fill="#28DF99"/>
<path d="M128.788 169.52H119.56V169.804H128.788V169.52Z" fill="#FAFAFA"/>
<path d="M122.612 169.628C122.613 169.809 122.56 169.987 122.459 170.138C122.359 170.29 122.216 170.408 122.048 170.477C121.881 170.547 121.696 170.566 121.518 170.531C121.34 170.495 121.177 170.408 121.048 170.28C120.92 170.151 120.833 169.988 120.797 169.81C120.762 169.632 120.781 169.447 120.85 169.28C120.92 169.112 121.038 168.969 121.19 168.869C121.341 168.768 121.518 168.715 121.7 168.716C121.942 168.716 122.174 168.812 122.345 168.983C122.516 169.154 122.612 169.386 122.612 169.628Z" fill="#28DF99"/>
<path d="M122.236 169.628C122.237 169.735 122.206 169.84 122.147 169.929C122.088 170.019 122.003 170.089 121.905 170.13C121.806 170.171 121.697 170.182 121.592 170.162C121.487 170.141 121.39 170.09 121.314 170.014C121.238 169.938 121.187 169.841 121.166 169.736C121.145 169.631 121.157 169.522 121.198 169.423C121.239 169.325 121.309 169.24 121.398 169.181C121.488 169.122 121.593 169.091 121.7 169.092C121.842 169.092 121.978 169.148 122.079 169.249C122.18 169.349 122.236 169.486 122.236 169.628Z" fill="#FAFAFA"/>
<path d="M125.632 169.396C125.608 169.396 125.588 168.408 125.588 167.192C125.588 165.976 125.588 164.988 125.632 164.988C125.676 164.988 125.672 165.976 125.672 167.192C125.672 168.408 125.652 169.396 125.632 169.396Z" fill="#28DF99"/>
<path d="M127.6 169.628C127.6 169.808 127.547 169.985 127.446 170.135C127.346 170.285 127.204 170.402 127.037 170.471C126.87 170.54 126.687 170.558 126.51 170.522C126.333 170.487 126.171 170.4 126.043 170.273C125.916 170.145 125.829 169.983 125.794 169.806C125.758 169.629 125.776 169.446 125.845 169.279C125.914 169.112 126.031 168.97 126.181 168.87C126.331 168.769 126.508 168.716 126.688 168.716C126.93 168.716 127.162 168.812 127.333 168.983C127.504 169.154 127.6 169.386 127.6 169.628Z" fill="#28DF99"/>
<path d="M127.2 169.628C127.201 169.735 127.17 169.84 127.111 169.929C127.052 170.018 126.968 170.088 126.869 170.13C126.771 170.171 126.662 170.182 126.557 170.162C126.452 170.142 126.356 170.091 126.28 170.015C126.204 169.94 126.152 169.844 126.131 169.739C126.11 169.634 126.12 169.525 126.161 169.426C126.201 169.327 126.271 169.243 126.36 169.183C126.448 169.124 126.553 169.092 126.66 169.092C126.803 169.092 126.939 169.148 127.04 169.249C127.142 169.349 127.199 169.485 127.2 169.628Z" fill="#FAFAFA"/>
<path d="M126.676 167.944C126.676 167.968 126.544 167.984 126.384 167.984C126.224 167.984 126.092 167.984 126.092 167.944C126.092 167.904 126.224 167.9 126.384 167.9C126.544 167.9 126.676 167.92 126.676 167.944Z" fill="#28DF99"/>
<path d="M222.136 100.852C222.136 100.852 228.588 101.94 229.108 102.08C229.628 102.22 231.672 103.188 231.776 103.812C231.83 104.631 231.83 105.453 231.776 106.272C231.776 106.272 231.404 106.572 231.176 105.972C231.023 105.389 230.957 104.786 230.98 104.184L229.836 103.744L230.46 104.852L230.564 107.448C230.564 107.448 229.764 107.376 229.608 106.756C229.51 106.324 229.459 105.883 229.456 105.44L228.624 104.736L229.248 105.58L229.456 107.448C229.456 107.448 228.848 107.648 228.656 107.232C228.515 106.693 228.446 106.137 228.448 105.58L226.096 104.756L224.54 105.624L221.632 104L222.136 100.852Z" fill="#FFBE9D"/>
<path d="M199.544 84.904C199.576 85.032 207.32 95.704 207.32 95.704L222.88 100.544L222.172 106.388L203.104 102.548L196.336 94.78L199.544 84.904Z" fill="#28DF99"/>
<g opacity="0.2">
<path opacity="0.2" d="M199.544 84.904C199.576 85.032 207.32 95.704 207.32 95.704L222.88 100.544L222.172 106.388L203.104 102.548L196.336 94.78L199.544 84.904Z" fill="black"/>
</g>
<path d="M172.44 99.58H140.648C139.974 99.58 139.428 100.126 139.428 100.8V104.556C139.428 105.23 139.974 105.776 140.648 105.776H172.44C173.114 105.776 173.66 105.23 173.66 104.556V100.8C173.66 100.126 173.114 99.58 172.44 99.58Z" fill="#F5F5F5"/>
<path d="M172.444 105.776C172.444 105.776 172.512 105.776 172.644 105.748C172.898 105.701 173.131 105.574 173.307 105.384C173.482 105.194 173.592 104.953 173.62 104.696C173.62 104.32 173.62 103.872 173.62 103.376C173.62 102.88 173.62 102.324 173.62 101.72C173.62 101.416 173.62 101.1 173.62 100.772C173.615 100.61 173.577 100.45 173.508 100.303C173.439 100.156 173.341 100.024 173.22 99.916C173.089 99.8049 172.934 99.7243 172.768 99.68C172.591 99.6414 172.409 99.6293 172.228 99.644H171.06H168.52L140.676 99.676C140.52 99.6758 140.366 99.708 140.224 99.7707C140.081 99.8334 139.953 99.9251 139.848 100.04C139.744 100.156 139.665 100.293 139.615 100.44C139.566 100.588 139.547 100.745 139.56 100.9C139.56 101.572 139.56 102.24 139.56 102.9V104.4C139.552 104.553 139.566 104.707 139.6 104.856C139.66 105.072 139.783 105.266 139.953 105.412C140.123 105.558 140.333 105.65 140.556 105.676C140.696 105.676 140.868 105.676 141.028 105.676H148.42L160.936 105.7L169.376 105.732L171.672 105.752H172.268H172.472H172.268H171.672L169.376 105.772L160.936 105.804L148.42 105.828H141C140.836 105.828 140.684 105.828 140.504 105.828C140.33 105.807 140.162 105.753 140.008 105.668C139.855 105.583 139.72 105.469 139.612 105.331C139.503 105.194 139.423 105.037 139.376 104.868C139.333 104.701 139.317 104.528 139.328 104.356V102.872C139.328 102.212 139.328 101.544 139.328 100.872C139.317 100.691 139.343 100.509 139.402 100.337C139.462 100.166 139.555 100.008 139.676 99.872C139.8 99.7351 139.951 99.6259 140.12 99.5515C140.289 99.477 140.471 99.4391 140.656 99.44L168.5 99.472H172.208C172.4 99.4641 172.592 99.4802 172.78 99.52C172.963 99.5697 173.133 99.6599 173.276 99.784C173.411 99.9013 173.521 100.045 173.597 100.207C173.673 100.369 173.715 100.545 173.72 100.724C173.72 101.052 173.72 101.372 173.72 101.676C173.72 102.28 173.72 102.832 173.72 103.332C173.72 103.832 173.72 104.268 173.7 104.66C173.656 104.992 173.482 105.292 173.216 105.496C173.054 105.617 172.864 105.696 172.664 105.724C172.594 105.753 172.52 105.771 172.444 105.776Z" fill="#263238"/>
<path d="M258.766 184.95C267.788 184.516 274.751 176.85 274.318 167.828C273.885 158.805 266.219 151.842 257.196 152.275C248.173 152.709 241.21 160.374 241.644 169.397C242.077 178.42 249.743 185.383 258.766 184.95Z" fill="#263238"/>
<path d="M241.632 168.336C241.632 168.336 241.632 168.364 241.632 168.38C241.596 172.701 243.271 176.86 246.291 179.95C249.311 183.04 253.431 184.809 257.751 184.872C262.072 184.934 266.241 183.284 269.349 180.283C272.457 177.281 274.252 173.172 274.34 168.852C274.34 168.852 274.34 168.824 274.34 168.808L241.632 168.336Z" fill="#263238"/>
<path d="M246.5 168.448C246.467 170.719 247.108 172.949 248.343 174.856C249.577 176.762 251.349 178.26 253.435 179.16C255.52 180.059 257.826 180.32 260.06 179.909C262.294 179.499 264.356 178.434 265.985 176.852C267.614 175.269 268.737 173.239 269.213 171.018C269.688 168.796 269.494 166.484 268.655 164.374C267.816 162.263 266.37 160.448 264.5 159.159C262.63 157.87 260.419 157.165 258.148 157.132C255.103 157.088 252.165 158.256 249.981 160.378C247.796 162.5 246.544 165.403 246.5 168.448Z" fill="#FAFAFA"/>
<path d="M258.148 157.132C255.103 157.088 252.165 158.256 249.981 160.378C247.796 162.5 246.544 165.403 246.5 168.448L269.464 168.78C269.508 165.735 268.34 162.797 266.218 160.613C264.096 158.428 261.193 157.176 258.148 157.132Z" fill="#E0E0E0"/>
<path d="M250.988 168.512C250.968 169.896 251.358 171.254 252.11 172.416C252.861 173.578 253.941 174.491 255.211 175.039C256.482 175.587 257.887 175.746 259.248 175.496C260.609 175.246 261.865 174.598 262.858 173.634C263.85 172.67 264.535 171.433 264.824 170.08C265.114 168.727 264.996 167.318 264.485 166.032C263.974 164.746 263.093 163.64 261.954 162.855C260.814 162.07 259.468 161.64 258.084 161.62C256.229 161.593 254.44 162.304 253.109 163.597C251.778 164.889 251.015 166.657 250.988 168.512Z" fill="#263238"/>
<path d="M250.22 144.632C250.22 144.632 266.964 139.568 273.888 157.76L238.848 168.616L250.22 144.632Z" fill="#28DF99"/>
<path d="M157.854 184.951C166.877 184.518 173.84 176.852 173.406 167.829C172.973 158.807 165.307 151.843 156.284 152.277C147.262 152.71 140.298 160.376 140.732 169.399C141.165 178.422 148.831 185.385 157.854 184.951Z" fill="#263238"/>
<path d="M140.716 168.336C140.716 168.336 140.716 168.364 140.716 168.38C140.68 172.701 142.355 176.86 145.375 179.95C148.395 183.04 152.515 184.809 156.835 184.872C161.156 184.934 165.325 183.284 168.433 180.283C171.541 177.281 173.336 173.172 173.424 168.852V168.8L140.716 168.336Z" fill="#263238"/>
<path d="M145.6 168.448C145.567 170.719 146.208 172.949 147.443 174.856C148.677 176.762 150.449 178.26 152.535 179.16C154.62 180.059 156.926 180.32 159.16 179.909C161.394 179.499 163.456 178.434 165.085 176.852C166.714 175.269 167.837 173.239 168.313 171.018C168.788 168.796 168.594 166.484 167.755 164.374C166.916 162.263 165.47 160.448 163.6 159.159C161.73 157.87 159.519 157.165 157.248 157.132C154.203 157.088 151.265 158.256 149.081 160.378C146.896 162.5 145.644 165.403 145.6 168.448Z" fill="#FAFAFA"/>
<path d="M157.232 157.132C154.19 157.092 151.256 158.262 149.075 160.384C146.894 162.505 145.644 165.406 145.6 168.448L168.564 168.78C168.586 167.271 168.31 165.772 167.752 164.37C167.194 162.967 166.365 161.689 165.312 160.607C164.26 159.525 163.005 158.661 161.618 158.065C160.232 157.469 158.741 157.152 157.232 157.132Z" fill="#E0E0E0"/>
<path d="M150.072 168.512C150.052 169.896 150.442 171.254 151.194 172.416C151.946 173.578 153.025 174.491 154.295 175.039C155.566 175.587 156.971 175.746 158.332 175.496C159.693 175.246 160.949 174.598 161.942 173.634C162.934 172.67 163.619 171.433 163.908 170.08C164.198 168.727 164.08 167.318 163.569 166.032C163.058 164.746 162.177 163.64 161.038 162.855C159.898 162.07 158.552 161.64 157.168 161.62C155.313 161.593 153.524 162.304 152.193 163.597C150.862 164.889 150.099 166.657 150.072 168.512Z" fill="#263238"/>
<path d="M180.332 162.048C180.24 162.096 171.724 160.732 171.724 160.732C171.264 161.333 170.677 161.826 170.007 162.177C169.336 162.528 168.596 162.728 167.84 162.764C164.16 162.94 160.564 163.104 157.44 163.244C156.044 163.306 154.73 163.919 153.785 164.949C152.841 165.978 152.342 167.34 152.4 168.736C152.456 170.061 153.008 171.316 153.947 172.253C154.886 173.19 156.143 173.739 157.468 173.792L175.6 174.508C178.58 174.624 182.54 172.816 184.4 170.484L180.332 162.048Z" fill="#455A64"/>
<path d="M135.832 154.8C135.832 154.8 135.056 138.86 150.036 135.54V133.496H202.508V138.4C202.508 138.4 194.808 147.676 197.308 155.376C199.808 163.076 200.608 163.864 200.608 163.864H230.472C232.829 160.552 234.142 156.612 234.244 152.548C234.404 145.788 231.596 134.232 229.496 126.844C227.6 120.104 226.4 114.488 226.4 114.488L235.36 111.5C235.36 111.5 251.94 133.2 252.616 134.4C253.292 135.6 255.596 138.464 255.056 144.696C254.516 150.928 239.6 170.152 235.688 172.32C231.776 174.488 228.24 174.624 224.716 175.164C221.66 175.636 199.052 175.324 193.136 175.232C191.08 175.219 189.065 174.66 187.296 173.612C185.528 172.54 184.2 170.764 182.732 167.852L179.6 161.756L135.832 154.8Z" fill="#28DF99"/>
<path d="M139.848 153.704L133.24 164.056C133.044 164.343 132.946 164.686 132.963 165.033C132.979 165.38 133.107 165.713 133.329 165.98C133.551 166.248 133.854 166.436 134.192 166.516C134.531 166.596 134.886 166.564 135.204 166.424C136.026 166.056 136.778 165.547 137.424 164.92C140.444 162.044 145.824 154.468 145.824 154.468L139.848 153.704Z" fill="#455A64"/>
<path d="M187.244 155.568C187.244 155.568 187.244 155.516 187.284 155.416L187.416 154.98C187.575 154.42 187.691 153.849 187.764 153.272C187.985 151.135 187.632 148.978 186.74 147.024C186.14 145.675 185.317 144.438 184.304 143.364C183.141 142.137 181.791 141.103 180.304 140.3C178.656 139.41 176.893 138.753 175.064 138.348C173.093 137.923 171.081 137.715 169.064 137.728C167.056 137.743 165.052 137.891 163.064 138.172C161.128 138.432 159.272 138.752 157.52 139.152C154.41 139.813 151.412 140.921 148.62 142.444C146.745 143.484 145.033 144.793 143.536 146.328C143.008 146.872 142.628 147.324 142.376 147.632L142.092 147.988C142.062 148.03 142.027 148.069 141.988 148.104C142.429 147.451 142.927 146.838 143.476 146.272C144.96 144.708 146.669 143.374 148.548 142.316C151.345 140.766 154.354 139.636 157.48 138.964C159.232 138.564 161.08 138.232 163.036 137.968C165.04 137.684 167.06 137.535 169.084 137.52C171.112 137.506 173.135 137.717 175.116 138.148C176.963 138.567 178.742 139.24 180.404 140.148C181.912 140.963 183.28 142.013 184.456 143.26C185.476 144.352 186.302 145.61 186.9 146.98C187.788 148.96 188.123 151.145 187.868 153.3C187.784 153.88 187.65 154.451 187.468 155.008C187.404 155.192 187.356 155.332 187.316 155.44C187.296 155.485 187.272 155.527 187.244 155.568Z" fill="#263238"/>
<path d="M184.224 152C184.2 152 184.308 151.748 184.42 151.292C184.57 150.636 184.59 149.956 184.48 149.292C184.324 148.315 183.994 147.375 183.504 146.516C183.227 146.002 182.903 145.514 182.536 145.06C182.152 144.566 181.716 144.114 181.236 143.712C180.3 142.941 179.247 142.326 178.116 141.888C177.191 141.525 176.231 141.257 175.252 141.088C174.59 140.976 173.922 140.9 173.252 140.86C173.006 140.857 172.76 140.838 172.516 140.804C172.58 140.794 172.644 140.794 172.708 140.804C172.832 140.804 173.016 140.804 173.256 140.804C173.926 140.814 174.594 140.869 175.256 140.968C176.251 141.111 177.227 141.362 178.168 141.716C179.328 142.153 180.409 142.776 181.368 143.56C181.858 143.972 182.303 144.435 182.696 144.94C183.064 145.407 183.389 145.907 183.668 146.432C184.163 147.312 184.486 148.279 184.62 149.28C184.719 149.956 184.677 150.645 184.496 151.304C184.449 151.482 184.384 151.655 184.304 151.82C184.286 151.883 184.259 151.944 184.224 152Z" fill="#F5F5F5"/>
<g opacity="0.4">
<path opacity="0.4" d="M173.948 138.024C176.772 138.54 179.461 139.629 181.848 141.224C184.248 142.818 186.097 145.115 187.14 147.8C188.188 150.496 188.032 154.068 186.928 156.3L190.636 156.608C191.884 152.444 190.528 147.336 187.528 144.076C185.811 142.175 183.717 140.654 181.378 139.609C179.04 138.564 176.509 138.019 173.948 138.008" fill="black"/>
</g>
<path d="M172.764 105.464H140.328C138.433 105.464 136.896 107.001 136.896 108.896V130.076C136.896 131.971 138.433 133.508 140.328 133.508H172.764C174.659 133.508 176.196 131.971 176.196 130.076V108.896C176.196 107.001 174.659 105.464 172.764 105.464Z" fill="#455A64"/>
<path d="M176.196 111.72C176.196 111.78 167.36 111.824 156.464 111.824C145.568 111.824 136.728 111.78 136.728 111.72C136.728 111.66 145.56 111.616 156.464 111.616C167.368 111.616 176.196 111.664 176.196 111.72Z" fill="#263238"/>
<path d="M202.484 135.364C202.484 135.42 190.688 135.468 176.144 135.468C161.6 135.468 149.804 135.42 149.804 135.364C149.804 135.308 161.596 135.26 176.144 135.26C190.692 135.26 202.484 135.308 202.484 135.364Z" fill="#263238"/>
<path d="M202.508 133.508C203.043 132.831 203.373 132.015 203.46 131.156C203.54 129.84 202.94 128.192 201.52 128.192H183.4C181.99 128.192 180.638 128.752 179.641 129.749C178.644 130.746 178.084 132.098 178.084 133.508H202.508Z" fill="#455A64"/>
<path d="M226.4 114.488L223.248 107.916C222.827 107.014 222.758 105.987 223.054 105.037C223.35 104.086 223.989 103.28 224.848 102.776L234.272 97.156C234.764 96.8603 235.326 96.7041 235.9 96.704H237.936L238.736 109.988L235.6 111.2L237.6 114.432L226.4 114.488Z" fill="#28DF99"/>
<path d="M237.964 97.2C237.964 97.2 241.188 97.94 241.592 102.908C241.996 107.876 238.748 109.428 238.748 109.428L237.964 97.2Z" fill="#EBEBEB"/>
<path d="M227.5 105.34C227.5 105.34 220.984 108.428 220.188 108.94C219.636 109.292 219.164 109.908 219.596 110.992C220.332 112.836 223.38 111.1 223.38 111.1L229.448 108.068C229.448 108.068 231.78 106.968 230.916 105.588C229.952 104.044 227.5 105.34 227.5 105.34Z" fill="#263238"/>
<path d="M218.276 104.216C218.276 104.216 224.4 105.264 224.92 105.416C225.44 105.568 227.48 106.524 227.584 107.148C227.638 107.967 227.638 108.789 227.584 109.608C227.584 109.608 227.216 109.908 226.984 109.308C226.833 108.723 226.767 108.12 226.788 107.516L225.644 107.076L226.268 108.184L226.372 110.784C226.372 110.784 225.572 110.712 225.42 110.088C225.322 109.658 225.271 109.218 225.268 108.776L224.432 108.068L225.056 108.912L225.268 110.784C225.268 110.784 224.66 110.98 224.468 110.564C224.327 110.025 224.257 109.469 224.26 108.912L221.908 108.092L220.352 108.96L217.904 107.6L218.276 104.216Z" fill="#FFBE9D"/>
<path d="M227.812 95.688C227.812 98.168 226.672 100.176 225.268 100.176C223.864 100.176 222.724 98.176 222.724 95.688C222.724 93.2 223.86 91.2 225.268 91.2C226.676 91.2 227.812 93.2 227.812 95.688Z" fill="#263238"/>
<path d="M225.684 98.772L227.084 103.62C227.34 103.491 227.543 103.279 227.662 103.019C227.781 102.758 227.807 102.465 227.736 102.188C227.384 100.528 227.184 99.348 226.8 97.892C226.752 97.748 225.684 98.772 225.684 98.772Z" fill="#263238"/>
<g opacity="0.4">
<path opacity="0.4" d="M198 157.428C197.864 157.028 197.72 156.628 197.6 156.2C197.48 155.772 197.328 155.4 197.224 155C197.063 154.4 196.945 153.789 196.872 153.172C194.512 162.772 198.116 169.544 204.3 170.02C213.34 170.716 224.36 171.22 228.816 170.052C236.94 167.92 239.92 161.144 240.632 160.028C241.344 158.912 247.804 147.1 243.832 135.728C239.86 124.356 232.972 112.28 232.972 112.28L226.4 114.488C226.4 114.488 227.6 120.088 229.508 126.824C231.608 134.212 234.416 145.768 234.256 152.528C234.154 156.592 232.841 160.532 230.484 163.844H200.624C200.624 163.844 199.984 163.204 198.012 157.444" fill="black"/>
</g>
<path d="M134.64 152.312L134.852 150.032L189.364 156.312C190.093 156.398 190.796 156.631 191.431 156.999C192.066 157.366 192.619 157.859 193.057 158.448C193.494 159.037 193.807 159.709 193.975 160.423C194.143 161.137 194.164 161.878 194.036 162.6L193.792 163.98L137.392 155.784C136.574 155.672 135.831 155.248 135.318 154.601C134.805 153.954 134.562 153.134 134.64 152.312Z" fill="#28DF99"/>
<g opacity="0.6">
<path opacity="0.6" d="M134.64 152.312L134.852 150.032L189.364 156.312C190.093 156.398 190.796 156.631 191.431 156.999C192.066 157.366 192.619 157.859 193.057 158.448C193.494 159.037 193.807 159.709 193.975 160.423C194.143 161.137 194.164 161.878 194.036 162.6L193.792 163.98L137.392 155.784C136.574 155.672 135.831 155.248 135.318 154.601C134.805 153.954 134.562 153.134 134.64 152.312Z" fill="black"/>
</g>
<g opacity="0.3">
<path opacity="0.3" d="M240.632 167.56C240.632 167.56 252.632 154.36 255.108 143.984C256.352 143.977 257.595 144.069 258.824 144.26C258.824 144.26 251.728 163.552 240.632 167.56Z" fill="black"/>
</g>
<path d="M254.932 139.336C254.963 139.445 254.984 139.556 254.996 139.668C255.028 139.888 255.092 140.212 255.132 140.632C255.249 141.831 255.218 143.04 255.04 144.232C254.758 145.992 254.219 147.701 253.44 149.304C252.489 151.256 251.429 153.152 250.264 154.984C248.173 158.327 245.825 161.502 243.24 164.48C242.264 165.636 241.456 166.556 240.896 167.188L240.248 167.912C240.174 167.998 240.096 168.08 240.012 168.156C240.071 168.06 240.14 167.971 240.216 167.888L240.836 167.136L243.128 164.388C245.672 161.387 247.998 158.209 250.088 154.876C251.254 153.05 252.323 151.164 253.288 149.224C254.057 147.637 254.596 145.948 254.888 144.208C255.072 143.033 255.124 141.842 255.044 140.656C255.016 140.236 254.964 139.912 254.948 139.688C254.931 139.571 254.926 139.454 254.932 139.336Z" fill="#263238"/>
<path d="M234.188 167.464C233.501 166.938 232.857 166.358 232.264 165.728C231.623 165.148 231.03 164.518 230.488 163.844C231.817 164.949 233.054 166.16 234.188 167.464Z" fill="#263238"/>
<path d="M198.572 167.06C198.765 166.444 199.064 165.866 199.456 165.352C199.79 164.799 200.216 164.308 200.716 163.9C200.76 163.944 200.212 164.6 199.628 165.468C199.044 166.336 198.628 167.084 198.572 167.06Z" fill="#263238"/>
<path d="M175.516 174.68C176.172 174.082 176.725 173.379 177.152 172.6C177.6 171.75 177.872 170.818 177.952 169.86C178.073 168.692 177.869 167.514 177.362 166.455C176.855 165.396 176.066 164.498 175.08 163.86C174.286 163.32 173.39 162.946 172.448 162.76C171.575 162.602 170.681 162.59 169.804 162.724C169.86 162.7 169.919 162.682 169.98 162.672C170.154 162.627 170.33 162.592 170.508 162.568C171.162 162.48 171.827 162.497 172.476 162.616C173.445 162.787 174.368 163.156 175.188 163.7C176.213 164.351 177.034 165.277 177.557 166.373C178.079 167.469 178.283 168.69 178.144 169.896C178.052 170.879 177.758 171.832 177.28 172.696C176.966 173.277 176.561 173.803 176.08 174.256C175.954 174.381 175.821 174.497 175.68 174.604C175.629 174.636 175.574 174.661 175.516 174.68Z" fill="#263238"/>
<path d="M155.6 170.5C155.463 169.869 155.397 169.225 155.404 168.58C155.335 167.937 155.335 167.287 155.404 166.644C155.604 167.919 155.665 169.212 155.588 170.5H155.6Z" fill="#263238"/>
<path d="M157.056 170.504C156.757 169.237 156.592 167.942 156.564 166.64C156.746 167.266 156.863 167.91 156.912 168.56C157.028 169.201 157.076 169.853 157.056 170.504Z" fill="#263238"/>
<path d="M179.54 133.508C179.54 133.564 172.912 133.612 164.74 133.612C156.568 133.612 149.94 133.564 149.94 133.508C149.94 133.452 156.568 133.404 164.74 133.404C172.912 133.404 179.54 133.448 179.54 133.508Z" fill="#263238"/>
<path d="M158.076 133.488C158.016 133.488 157.972 125.888 157.972 116.536C157.972 107.184 158 99.6 158.076 99.6C158.152 99.6 158.18 107.2 158.18 116.556C158.18 125.912 158.132 133.488 158.076 133.488Z" fill="#263238"/>
<path d="M154 133.46C153.944 133.46 154.228 125.86 154.636 116.516C155.044 107.172 155.436 99.576 155.476 99.58C155.516 99.584 155.252 107.18 154.844 116.524C154.436 125.868 154.076 133.464 154 133.46Z" fill="#263238"/>
<path d="M144.836 179.72C144.772 179.666 144.713 179.606 144.66 179.54C144.556 179.42 144.384 179.248 144.196 179.004C143.643 178.325 143.149 177.599 142.72 176.836C141.272 174.308 140.516 171.444 140.528 168.531C140.54 165.618 141.319 162.76 142.788 160.244C143.222 159.483 143.721 158.762 144.28 158.088C144.472 157.844 144.644 157.688 144.752 157.552C144.86 157.416 144.924 157.372 144.928 157.38C144.888 157.452 144.84 157.519 144.784 157.58C144.688 157.712 144.524 157.888 144.344 158.14C142.292 160.754 141.056 163.914 140.79 167.227C140.524 170.539 141.24 173.856 142.848 176.764C143.262 177.528 143.734 178.26 144.26 178.952C144.436 179.204 144.596 179.384 144.692 179.516C144.788 179.648 144.844 179.712 144.836 179.72Z" fill="#455A64"/>
<path d="M202.14 149.244L202.016 149.476L199.6 154L196.224 157.248L202.972 166.232L208.592 165.3C208.592 165.3 207.964 164.016 205.14 163.768L204.072 158.4L208.036 152.256" fill="#455A64"/>
<path d="M196.232 157.26L202.98 166.244L208.6 165.312L207.828 164.572L203.216 165.076L196.952 156.568L196.232 157.26Z" fill="#E0E0E0"/>
<path d="M204.7 161.312C204.668 161.376 204.3 161.244 203.9 161.332C203.5 161.42 203.176 161.648 203.124 161.6C203.072 161.552 203.324 161.176 203.852 161.084C204.38 160.992 204.744 161.26 204.7 161.312Z" fill="#263238"/>
<path d="M204.4 160C204.352 160.048 204.044 159.76 203.6 159.744C203.156 159.728 202.8 159.996 202.764 159.944C202.728 159.892 202.792 159.82 202.936 159.704C203.131 159.562 203.367 159.489 203.608 159.496C203.849 159.502 204.081 159.591 204.264 159.748C204.372 159.86 204.4 159.968 204.4 160Z" fill="#263238"/>
<path d="M204.14 158.26C204.084 158.304 203.836 158.012 203.424 157.94C203.012 157.868 202.68 158.056 202.624 157.996C202.568 157.936 202.66 157.88 202.808 157.796C203.003 157.693 203.228 157.658 203.445 157.697C203.663 157.736 203.861 157.847 204.008 158.012C204.144 158.14 204.168 158.244 204.14 158.26Z" fill="#263238"/>
<path d="M205.42 156.68C205.36 156.712 205.148 156.42 204.76 156.252C204.372 156.084 204.02 156.108 204.004 156.04C203.988 155.972 204.404 155.808 204.864 156.04C205.324 156.272 205.488 156.66 205.42 156.68Z" fill="#263238"/>
<path d="M205.964 155.404C205.936 155.424 205.716 155.232 205.376 154.896L204.8 154.3C204.67 154.183 204.556 154.049 204.464 153.9C204.437 153.846 204.421 153.788 204.417 153.728C204.413 153.669 204.421 153.609 204.44 153.552C204.463 153.487 204.504 153.431 204.559 153.389C204.614 153.348 204.68 153.324 204.748 153.32C204.953 153.323 205.152 153.387 205.32 153.504C205.467 153.598 205.601 153.709 205.72 153.836C205.919 154.055 206.065 154.316 206.148 154.6C206.253 154.856 206.253 155.144 206.148 155.4C206.107 155.153 206.051 154.908 205.98 154.668C205.882 154.422 205.737 154.197 205.552 154.008C205.443 153.9 205.321 153.806 205.188 153.728C205.061 153.645 204.915 153.594 204.764 153.58C204.743 153.58 204.723 153.587 204.705 153.599C204.688 153.611 204.675 153.628 204.668 153.648C204.646 153.7 204.646 153.759 204.668 153.812C204.746 153.941 204.84 154.059 204.948 154.164L205.496 154.8C205.683 154.975 205.841 155.179 205.964 155.404Z" fill="#263238"/>
<path d="M206.192 155.536C206.164 155.536 206.136 155.24 206.384 154.852C206.553 154.596 206.8 154.401 207.088 154.297C207.376 154.192 207.69 154.184 207.984 154.272C208.016 154.293 208.044 154.321 208.064 154.353C208.085 154.386 208.098 154.422 208.104 154.46C208.109 154.525 208.095 154.591 208.064 154.648C208.019 154.728 207.961 154.8 207.892 154.86C207.781 154.968 207.66 155.065 207.532 155.152C207.316 155.297 207.078 155.408 206.828 155.48C206.605 155.571 206.358 155.589 206.124 155.532C206.124 155.492 206.384 155.468 206.772 155.312C206.995 155.223 207.207 155.106 207.4 154.964C207.514 154.88 207.621 154.786 207.72 154.684C207.769 154.641 207.81 154.591 207.844 154.536C207.864 154.48 207.844 154.496 207.844 154.484C207.79 154.461 207.731 154.448 207.672 154.448C207.601 154.442 207.531 154.442 207.46 154.448C207.323 154.46 207.188 154.492 207.06 154.544C206.844 154.628 206.653 154.766 206.504 154.944C206.387 155.134 206.283 155.332 206.192 155.536Z" fill="#263238"/>
<path d="M200.688 156.344C200.71 156.476 200.692 156.611 200.637 156.733C200.582 156.855 200.492 156.958 200.379 157.029C200.265 157.1 200.133 157.135 199.999 157.131C199.866 157.126 199.736 157.083 199.627 157.005C199.519 156.927 199.436 156.818 199.388 156.693C199.341 156.568 199.333 156.431 199.363 156.301C199.393 156.171 199.462 156.053 199.56 155.961C199.657 155.87 199.78 155.81 199.912 155.788C200.088 155.76 200.269 155.803 200.414 155.907C200.559 156.011 200.658 156.168 200.688 156.344Z" fill="#E0E0E0"/>
<path d="M222.62 153.564L224.424 165.276L239.012 163.108C238.716 161.728 230.756 160.052 230.756 160.052L229.908 152.5L222.62 153.564Z" fill="#455A64"/>
<path d="M226.152 160.092C226.018 160.155 225.912 160.265 225.854 160.402C225.796 160.539 225.791 160.692 225.84 160.832C225.899 160.968 226.008 161.076 226.144 161.134C226.28 161.193 226.433 161.198 226.572 161.148C226.717 161.08 226.83 160.96 226.89 160.811C226.951 160.663 226.952 160.498 226.896 160.348C226.821 160.211 226.695 160.109 226.546 160.064C226.396 160.018 226.235 160.033 226.096 160.104" fill="#E0E0E0"/>
<path d="M224.424 165.276L224.288 164.076L238.324 162.44C238.324 162.44 239.016 162.628 239.012 163.096L224.424 165.276Z" fill="#E0E0E0"/>
<path d="M230.98 159.944C230.98 160.016 230.64 160.1 230.32 160.38C230 160.66 229.864 160.988 229.792 160.972C229.72 160.956 229.768 160.524 230.156 160.192C230.544 159.86 230.988 159.876 230.98 159.944Z" fill="#263238"/>
<path d="M232.604 160.348C232.632 160.416 232.34 160.58 232.144 160.92C231.948 161.26 231.924 161.584 231.852 161.592C231.78 161.6 231.676 161.192 231.928 160.792C232.18 160.392 232.592 160.28 232.604 160.348Z" fill="#263238"/>
<path d="M233.748 162.048C233.684 162.076 233.532 161.732 233.656 161.316C233.78 160.9 234.092 160.692 234.132 160.748C234.172 160.804 233.996 161.044 233.896 161.388C233.796 161.732 233.816 162.032 233.748 162.048Z" fill="#263238"/>
<path d="M230.596 158.244C230.596 158.312 230.236 158.264 229.836 158.348C229.436 158.432 229.144 158.612 229.096 158.556C229.048 158.5 229.316 158.2 229.784 158.104C230.252 158.008 230.624 158.18 230.596 158.244Z" fill="#263238"/>
<path d="M230 156.564C229.77 156.664 229.517 156.7 229.268 156.668C228.997 156.66 228.729 156.62 228.468 156.548C228.309 156.51 228.152 156.46 228 156.4C227.911 156.368 227.828 156.321 227.756 156.26C227.701 156.217 227.662 156.157 227.646 156.09C227.63 156.022 227.638 155.951 227.668 155.888C227.696 155.833 227.737 155.785 227.787 155.748C227.837 155.711 227.895 155.687 227.956 155.676C228.047 155.662 228.141 155.662 228.232 155.676C228.395 155.688 228.556 155.717 228.712 155.764C228.975 155.839 229.224 155.953 229.452 156.104C229.852 156.368 229.992 156.616 229.968 156.636C229.944 156.656 229.74 156.464 229.36 156.256C229.137 156.136 228.899 156.045 228.652 155.988C228.508 155.95 228.361 155.927 228.212 155.92C228.052 155.92 227.92 155.92 227.892 155.996C227.864 156.072 227.892 156.032 227.92 156.076C227.975 156.118 228.036 156.151 228.1 156.176C228.237 156.238 228.377 156.293 228.52 156.34C228.764 156.418 229.014 156.473 229.268 156.504C229.513 156.507 229.758 156.527 230 156.564Z" fill="#263238"/>
<path d="M229.916 156.68C229.892 156.68 229.712 156.46 229.616 156.004C229.573 155.739 229.573 155.469 229.616 155.204C229.642 155.043 229.682 154.885 229.736 154.732C229.76 154.631 229.809 154.538 229.879 154.462C229.949 154.386 230.038 154.329 230.136 154.296C230.201 154.288 230.267 154.298 230.327 154.326C230.386 154.353 230.436 154.397 230.472 154.452C230.522 154.533 230.561 154.62 230.588 154.712C230.637 154.871 230.661 155.037 230.66 155.204C230.66 155.483 230.591 155.758 230.46 156.004C230.232 156.404 229.948 156.552 229.94 156.528C229.932 156.504 230.136 156.324 230.3 155.928C230.395 155.7 230.439 155.454 230.428 155.208C230.424 155.065 230.399 154.923 230.352 154.788C230.308 154.636 230.232 154.52 230.176 154.544C230.12 154.568 229.996 154.688 229.956 154.82C229.902 154.957 229.86 155.099 229.832 155.244C229.787 155.491 229.776 155.742 229.8 155.992C229.836 156.4 229.952 156.664 229.916 156.68Z" fill="#263238"/>
<path d="M211.144 126.052L198.636 153.308L206.896 158.268L224.192 125.472" fill="#263238"/>
<path d="M231.772 158.888L222.8 160.328L217.428 128.272L190.888 130.196C190.186 130.245 189.481 130.179 188.8 130C181.348 127.956 182.356 118.452 183.076 116.928L219.8 115.876C221.724 115.82 223.601 116.476 225.071 117.718C226.542 118.961 227.502 120.702 227.768 122.608L231.772 158.888Z" fill="#263238"/>
<path d="M182.704 118.432L182.836 104.88C182.836 104.88 181.088 96.08 180.568 92.604C179.768 87.228 178.664 84.672 187.472 80.852L189.4 80.108L192.38 80.148C195.932 80.416 199.676 83.628 199.764 85.748L203.2 116.296L182.704 118.432Z" fill="#28DF99"/>
<path d="M183.256 84C183.256 84 180.768 89.352 181.256 94.228L190.524 103.124C192.6 105.436 195.2 106.42 198.524 106.62L217.7 108.716L218.232 103.7L200 98.532C199.272 98.396 198.908 97.64 198.352 97.152L183.256 84Z" fill="#28DF99"/>
<path d="M181.756 85.544C181.864 85.441 181.988 85.3572 182.124 85.296C182.519 85.1221 182.936 85.0049 183.364 84.948C184.05 84.8355 184.75 84.8355 185.436 84.948C185.648 84.9864 185.853 85.0566 186.044 85.156C186.239 85.2786 186.428 85.4121 186.608 85.556C186.976 85.844 187.348 86.176 187.728 86.536C188.496 87.252 189.224 88.16 190.076 89.08C190.928 90 191.86 90.988 192.876 92.024C193.892 93.06 194.984 94.144 196.152 95.264C196.74 95.824 197.352 96.392 197.988 96.948C198.312 97.212 198.632 97.524 198.94 97.816C199.23 98.1162 199.597 98.3319 200 98.44L218.268 103.6L218.352 103.624V103.712C218.316 104.068 218.272 104.448 218.232 104.836C218.092 106.168 217.952 107.488 217.832 108.728V108.832H217.728L209.6 107.928L205.76 107.508L202.084 107.136C200.884 107.004 199.728 106.868 198.604 106.704C197.506 106.569 196.425 106.318 195.38 105.956C194.416 105.589 193.505 105.098 192.668 104.496C191.868 103.932 191.116 103.344 190.424 102.764C187.684 100.428 185.672 98.336 184.276 96.912C183.584 96.196 183.052 95.632 182.696 95.248L182.296 94.808L182.164 94.652C182.164 94.652 182.216 94.696 182.312 94.792C182.408 94.888 182.548 95.036 182.712 95.22L184.312 96.86C185.724 98.264 187.752 100.34 190.496 102.656C191.188 103.228 191.928 103.812 192.732 104.368C193.563 104.958 194.467 105.439 195.42 105.8C196.458 106.154 197.531 106.398 198.62 106.528C199.744 106.688 200.904 106.824 202.096 106.952L205.772 107.312L209.612 107.732L217.732 108.616L217.616 108.708C217.748 107.468 217.888 106.148 218.016 104.812C218.06 104.412 218.1 104.044 218.136 103.688L218.212 103.8L199.972 98.62C199.527 98.5093 199.122 98.275 198.804 97.944C198.48 97.636 198.188 97.348 197.856 97.072C197.212 96.512 196.608 95.94 196.02 95.38C194.852 94.256 193.764 93.164 192.752 92.124C191.74 91.084 190.812 90.092 189.952 89.16C189.092 88.228 188.388 87.324 187.628 86.608C187.278 86.2612 186.91 85.934 186.524 85.628C186.35 85.4816 186.165 85.3479 185.972 85.228C185.791 85.1295 185.595 85.0606 185.392 85.024C184.717 84.9004 184.026 84.8896 183.348 84.992C182.923 85.0397 182.507 85.146 182.112 85.308C181.987 85.3775 181.868 85.4564 181.756 85.544Z" fill="#263238"/>
<path d="M186.544 68.352L187.472 81.552C187.546 82.5898 188.01 83.561 188.772 84.2699C189.534 84.9787 190.536 85.3726 191.576 85.372C192.139 85.3721 192.695 85.2567 193.212 85.033C193.728 84.8093 194.193 84.4821 194.577 84.0715C194.962 83.6609 195.258 83.1758 195.448 82.6461C195.638 82.1164 195.717 81.5534 195.68 80.992C195.596 79.736 195.524 78.708 195.524 78.708C195.524 78.708 198.724 78.212 198.756 75.016C198.78 73.172 198.46 68.988 198.188 65.78C198.099 64.7321 197.618 63.7561 196.842 63.0462C196.066 62.3362 195.052 61.9442 194 61.948H192.068C191.281 61.9957 190.512 62.2006 189.806 62.5504C189.099 62.9002 188.47 63.388 187.955 63.9848C187.44 64.5817 187.05 65.2756 186.808 66.0257C186.566 66.7757 186.476 67.5667 186.544 68.352Z" fill="#FFBE9D"/>
<path d="M195.528 78.656C194.054 78.6838 192.605 78.2731 191.364 77.476C191.364 77.476 192.348 79.772 195.536 79.476L195.528 78.656Z" fill="#EB996E"/>
<path d="M197.472 69.88C197.473 69.9989 197.428 70.1135 197.346 70.1995C197.263 70.2854 197.151 70.3358 197.032 70.34C196.975 70.3455 196.917 70.3394 196.862 70.3222C196.807 70.3049 196.756 70.2768 196.712 70.2395C196.668 70.2022 196.632 70.1565 196.606 70.1051C196.58 70.0537 196.564 69.9975 196.56 69.94C196.559 69.8207 196.604 69.7056 196.686 69.619C196.768 69.5325 196.881 69.4812 197 69.476C197.116 69.4672 197.231 69.5047 197.319 69.5805C197.408 69.6562 197.463 69.7639 197.472 69.88Z" fill="#263238"/>
<path d="M197.64 68.98C197.58 69.04 197.24 68.784 196.744 68.784C196.248 68.784 195.896 69.032 195.84 68.972C195.784 68.912 195.872 68.836 196.032 68.724C196.243 68.5759 196.495 68.4976 196.752 68.5C197.008 68.4994 197.258 68.5807 197.464 68.732C197.6 68.844 197.664 68.952 197.64 68.98Z" fill="#263238"/>
<path d="M192.864 69.88C192.866 69.9992 192.821 70.1144 192.739 70.2006C192.656 70.2867 192.543 70.3369 192.424 70.34C192.367 70.3455 192.309 70.3394 192.254 70.3222C192.199 70.3049 192.148 70.2768 192.104 70.2395C192.06 70.2022 192.024 70.1565 191.998 70.1051C191.971 70.0537 191.956 69.9975 191.952 69.94C191.951 69.8207 191.996 69.7056 192.078 69.619C192.16 69.5325 192.273 69.4812 192.392 69.476C192.508 69.4672 192.623 69.5047 192.711 69.5805C192.8 69.6562 192.855 69.7639 192.864 69.88Z" fill="#263238"/>
<path d="M192.8 69.072C192.744 69.132 192.4 68.876 191.904 68.876C191.408 68.876 191.056 69.124 191.004 69.064C190.952 69.004 191.032 68.928 191.192 68.816C191.403 68.6679 191.655 68.5896 191.912 68.592C192.168 68.5902 192.417 68.6701 192.624 68.82C192.8 68.936 192.844 69.044 192.8 69.072Z" fill="#263238"/>
<path d="M194.596 72.712C194.856 72.6309 195.124 72.5825 195.396 72.568C195.52 72.568 195.64 72.528 195.66 72.444C195.673 72.3141 195.644 72.1835 195.576 72.072L195.2 71.12C194.855 70.312 194.577 69.4773 194.368 68.624C194.774 69.4027 195.119 70.2118 195.4 71.044L195.752 72.004C195.832 72.1548 195.856 72.3291 195.82 72.496C195.802 72.5404 195.773 72.5801 195.737 72.612C195.701 72.6439 195.658 72.6671 195.612 72.68C195.543 72.6978 195.472 72.7072 195.4 72.708C195.133 72.7431 194.863 72.7444 194.596 72.712Z" fill="#263238"/>
<path d="M193.152 73.052C193.232 73.052 193.232 73.58 193.688 73.956C194.144 74.332 194.712 74.276 194.716 74.356C194.72 74.436 194.588 74.456 194.348 74.464C194.036 74.4676 193.733 74.3614 193.492 74.164C193.266 73.9717 193.122 73.6994 193.092 73.404C193.056 73.2 193.116 73.048 193.152 73.052Z" fill="#263238"/>
<path d="M192.94 67.148C192.892 67.28 192.404 67.22 191.828 67.288C191.252 67.356 190.784 67.516 190.708 67.396C190.632 67.276 190.756 67.212 190.944 67.084C191.194 66.9245 191.477 66.8247 191.772 66.7921C192.067 66.7595 192.365 66.795 192.644 66.896C192.856 66.98 192.964 67.084 192.94 67.148Z" fill="#263238"/>
<path d="M197.456 67.56C197.372 67.672 197.032 67.56 196.628 67.56C196.224 67.56 195.876 67.632 195.796 67.516C195.716 67.4 195.816 67.348 195.968 67.244C196.168 67.1127 196.405 67.0483 196.644 67.06C196.882 67.065 197.112 67.1432 197.304 67.284C197.448 67.392 197.496 67.504 197.456 67.56Z" fill="#263238"/>
<path d="M187.62 70.752C187.564 70.728 185.424 70.1 185.496 72.284C185.568 74.468 187.74 73.948 187.744 73.884C187.748 73.82 187.62 70.752 187.62 70.752Z" fill="#FFBE9D"/>
<path d="M187.048 73.08C187.048 73.08 187.012 73.108 186.948 73.14C186.857 73.1747 186.756 73.1747 186.664 73.14C186.521 73.055 186.403 72.9336 186.322 72.7881C186.241 72.6427 186.201 72.4783 186.204 72.312C186.192 72.125 186.222 71.9379 186.292 71.764C186.31 71.6948 186.345 71.6311 186.393 71.5781C186.441 71.5252 186.501 71.4847 186.568 71.46C186.612 71.4476 186.658 71.4509 186.7 71.4691C186.742 71.4874 186.776 71.5195 186.796 71.56C186.828 71.62 186.816 71.664 186.828 71.668C186.84 71.672 186.872 71.628 186.852 71.54C186.839 71.4851 186.806 71.4368 186.76 71.404C186.73 71.3824 186.695 71.3671 186.659 71.3589C186.622 71.3506 186.585 71.3497 186.548 71.356C186.456 71.3739 186.371 71.416 186.3 71.4778C186.23 71.5397 186.178 71.6191 186.148 71.708C186.06 71.8995 186.022 72.1098 186.036 72.32C186.031 72.5146 186.083 72.7064 186.187 72.8709C186.291 73.0355 186.442 73.1654 186.62 73.244C186.679 73.2595 186.74 73.2614 186.8 73.2497C186.86 73.2379 186.916 73.2127 186.964 73.176C187.048 73.132 187.056 73.084 187.048 73.08Z" fill="#EB996E"/>
<path d="M186.4 70.676C186.608 70.6626 186.815 70.7057 187.001 70.8007C187.186 70.8958 187.342 71.0393 187.452 71.216C187.592 71.528 187.624 71.88 187.764 72.192C187.824 72.3524 187.935 72.4891 188.079 72.582C188.223 72.6749 188.393 72.7191 188.564 72.708C188.677 72.6725 188.779 72.6074 188.86 72.5196C188.94 72.4318 188.995 72.3243 189.02 72.208C189.066 71.9756 189.066 71.7364 189.02 71.504C188.892 70.484 188.68 69.476 188.64 68.448C188.555 67.4166 188.779 66.3832 189.284 65.48C189.54 65.0326 189.913 64.6629 190.362 64.4101C190.811 64.1572 191.321 64.0308 191.836 64.044C192.516 64.1 193.136 64.444 193.812 64.548C194.213 64.6005 194.621 64.5612 195.005 64.433C195.389 64.3049 195.739 64.0911 196.028 63.808C196.156 63.7006 196.289 63.6004 196.428 63.508C196.419 63.2665 196.34 63.0329 196.2 62.836C194.86 61.596 192.452 61.236 190.684 61.696C189.786 61.9173 188.947 62.3314 188.225 62.9095C187.503 63.4877 186.916 64.2161 186.504 65.044C185.744 66.7 185.968 69 186.388 70.676" fill="#263238"/>
<path d="M198.224 65.284C198.224 65.284 189.848 62.588 186.224 69.836C185.944 68.9245 185.762 67.9859 185.68 67.036C185.68 66.388 186.08 62.52 190.048 61.304C190.048 61.32 196.044 59.032 198.224 65.284Z" fill="#28DF99"/>
<path d="M191.024 65.464C191.173 65.7045 191.375 65.9072 191.616 66.0559C191.857 66.2046 192.128 66.2954 192.41 66.321C192.692 66.3466 192.976 66.3064 193.239 66.2034C193.502 66.1005 193.738 65.9378 193.928 65.728C194.011 65.9363 194.157 66.1135 194.345 66.2345C194.534 66.3556 194.756 66.4146 194.979 66.4031C195.203 66.3916 195.418 66.3103 195.593 66.1706C195.768 66.0308 195.895 65.8397 195.956 65.624C196.18 65.8747 196.452 66.0775 196.756 66.22C196.913 66.2867 197.086 66.3036 197.253 66.2685C197.42 66.2335 197.571 66.1481 197.688 66.024C197.783 65.8791 197.829 65.7071 197.818 65.534C197.808 65.3608 197.741 65.1959 197.628 65.064C197.401 64.8014 197.109 64.6039 196.78 64.492C195.788 64.0558 194.697 63.8902 193.62 64.012C192.537 64.1421 191.545 64.6817 190.848 65.52" fill="#263238"/>
<g opacity="0.4">
<path opacity="0.4" d="M198.224 65.284C197.526 64.5532 196.57 64.1228 195.56 64.084C193.088 63.976 188.464 65.364 186.224 69.844C185.944 68.9324 185.762 67.9939 185.68 67.044C185.68 66.396 186.08 62.528 190.048 61.312C190.048 61.32 196.044 59.032 198.224 65.284Z" fill="black"/>
</g>
<path d="M186.572 68.988C187.842 67.0964 189.507 65.5025 191.452 64.316C193.38 63.116 196.564 61.916 198.756 61.34C199.406 61.125 200.095 61.0527 200.776 61.128C201.115 61.1709 201.435 61.3085 201.7 61.525C201.965 61.7414 202.163 62.028 202.272 62.352C202.48 63.18 201.012 64.456 200.32 64.956C199.645 65.4075 198.945 65.8215 198.224 66.196C198.224 66.196 198.244 64.66 195.788 64.344C192.448 63.916 186.572 68.988 186.572 68.988Z" fill="#28DF99"/>
<g opacity="0.3">
<path opacity="0.3" d="M183.624 96.208C184.488 98.292 185.36 100.864 186.612 102.74C187.864 104.616 189.536 106.284 191.616 107.14C194.232 108.236 197.324 108.412 199.924 107.292C200.136 107.2 200.552 107.084 200.512 106.856C200.512 106.856 199.652 106.756 199.384 106.712C194.132 105.84 193.56 105.2 191.044 103.2C189.476 101.964 186 98.216 183.624 96.208Z" fill="black"/>
</g>
<path d="M200.328 111.384C200.275 111.555 200.201 111.719 200.108 111.872C199.875 112.305 199.59 112.708 199.26 113.072C198.147 114.239 196.747 115.093 195.2 115.548C193.658 115.987 192.067 116.225 190.464 116.256C189.852 116.28 189.356 116.284 189.016 116.284C188.838 116.291 188.66 116.283 188.484 116.26C188.657 116.22 188.834 116.2 189.012 116.2L190.456 116.108C192.041 116.035 193.613 115.78 195.14 115.348C196.66 114.896 198.044 114.071 199.164 112.948C199.601 112.465 199.991 111.941 200.328 111.384Z" fill="#263238"/>
<path d="M222.956 161.284C222.939 161.245 222.928 161.203 222.924 161.16C222.924 161.068 222.884 160.944 222.852 160.792C222.792 160.456 222.704 159.992 222.596 159.376C222.376 158.128 222.068 156.348 221.684 154.152C220.936 149.728 219.904 143.636 218.764 136.908C218.256 133.86 217.772 130.948 217.328 128.288L217.432 128.372L205.948 129.2L202.652 129.424L201.772 129.476H201.548H201.468H201.544L201.772 129.448L202.648 129.368L205.94 129.088L217.416 128.172H217.504V128.26C217.952 130.92 218.444 133.832 218.956 136.876C220.072 143.608 221.08 149.704 221.816 154.132C222.168 156.332 222.456 158.132 222.66 159.364L222.876 160.792C222.9 160.944 222.916 161.068 222.928 161.16C222.942 161.2 222.952 161.242 222.956 161.284Z" fill="#455A64"/>
<path d="M220.12 125.416C220.156 125.464 219.456 126.064 218.664 126.872C217.872 127.68 217.28 128.388 217.232 128.348C217.97 127.172 218.955 126.171 220.12 125.416Z" fill="#455A64"/>
<path d="M195.6 81.268C195.6 81.268 195.624 81.312 195.648 81.4C195.688 81.5301 195.713 81.6643 195.724 81.8C195.771 82.2936 195.705 82.7913 195.532 83.256C195.274 83.9503 194.814 84.5519 194.212 84.984C193.461 85.4985 192.556 85.7412 191.648 85.672C190.744 85.6105 189.877 85.2851 189.156 84.736C188.575 84.2893 188.093 83.7268 187.74 83.084C187.501 82.6559 187.318 82.1988 187.196 81.724C187.156 81.556 187.128 81.424 187.116 81.324C187.104 81.224 187.116 81.184 187.116 81.184C187.302 81.8149 187.555 82.4238 187.872 83C188.234 83.6098 188.711 84.1437 189.276 84.572C189.975 85.0895 190.808 85.395 191.676 85.452C192.539 85.5181 193.399 85.2943 194.12 84.816C194.696 84.4089 195.143 83.8453 195.408 83.192C195.589 82.7496 195.675 82.2738 195.66 81.796C195.632 81.46 195.6 81.276 195.6 81.268Z" fill="#263238"/>
<path d="M201.244 98.736C201.198 98.6067 201.169 98.4724 201.156 98.336C201.112 98.02 201.06 97.636 200.996 97.192C200.864 96.172 200.692 94.86 200.504 93.408C200.316 91.956 200.18 90.608 200.104 89.616C200.06 89.132 200.032 88.736 200.016 88.464C199.997 88.3233 199.997 88.1807 200.016 88.04C200.058 88.17 200.086 88.3041 200.1 88.44C200.144 88.756 200.196 89.136 200.256 89.584C200.384 90.604 200.548 91.916 200.728 93.368C200.908 94.82 201.064 96.168 201.16 97.156C201.204 97.644 201.236 98.036 201.256 98.312C201.269 98.4533 201.265 98.5956 201.244 98.736Z" fill="#263238"/>
</svg>
